<svg xmlns="http://www.w3.org/2000/svg" version="1.1" xmlns:xlink="http://www.w3.org/1999/xlink" xmlns:svgjs="http://svgjs.com/svgjs" width="1920" height="560" preserveAspectRatio="none" viewBox="0 0 1920 560"><g mask="url(&quot;#SvgjsMask1050&quot;)" fill="none"><rect width="1920" height="560" x="0" y="0" fill="url(#SvgjsLinearGradient1051)"></rect><path d="M579.92 209.51 a163.16 163.16 0 1 0 326.32 0 a163.16 163.16 0 1 0 -326.32 0z" fill="rgba(28, 83, 142, 0.4)" class="triangle-float2"></path><path d="M1591.71 130.06 a112.66 112.66 0 1 0 225.32 0 a112.66 112.66 0 1 0 -225.32 0z" fill="rgba(28, 83, 142, 0.4)" class="triangle-float3"></path><path d="M1212.782,520.788C1258.476,524.484,1303.595,500.877,1326.367,461.09C1349.007,421.534,1343.625,372.581,1319.871,333.684C1297.141,296.465,1256.393,275.298,1212.782,275.096C1168.796,274.893,1123.77,293.41,1103.964,332.685C1085.521,369.258,1106.605,409.516,1127.116,444.971C1147.582,480.348,1172.045,517.493,1212.782,520.788" fill="rgba(28, 83, 142, 0.4)" class="triangle-float1"></path><path d="M967.38 135.11 a145.11 145.11 0 1 0 290.22 0 a145.11 145.11 0 1 0 -290.22 0z" fill="rgba(28, 83, 142, 0.4)" class="triangle-float1"></path><path d="M693.173,580.976C720.277,580.93,746.926,571.81,762.148,549.384C779.506,523.811,786.879,491.099,772.883,463.541C757.664,433.574,726.779,413.085,693.173,413.573C660.29,414.05,632.315,436.503,617.374,465.799C603.729,492.554,607.278,524.533,623.789,549.621C638.743,572.344,665.971,581.023,693.173,580.976" fill="rgba(28, 83, 142, 0.4)" class="triangle-float3"></path><path d="M-25.64 11.14 a182.13 182.13 0 1 0 364.26 0 a182.13 182.13 0 1 0 -364.26 0z" fill="rgba(28, 83, 142, 0.4)" class="triangle-float1"></path><path d="M1186.24 304.46 a107.42 107.42 0 1 0 214.84 0 a107.42 107.42 0 1 0 -214.84 0z" fill="rgba(28, 83, 142, 0.4)" class="triangle-float3"></path><path d="M314.979,508.594C338.237,508.816,350.109,483.453,361.769,463.328C373.476,443.121,388.658,420.713,377.902,399.985C366.646,378.294,339.374,371.718,314.979,373.161C293.135,374.453,273.648,387.222,263.753,406.739C254.701,424.593,260.717,444.566,269.711,462.449C280.087,483.081,291.886,508.374,314.979,508.594" fill="rgba(28, 83, 142, 0.4)" class="triangle-float2"></path><path d="M1557.474,153.964C1576.306,153.553,1593.721,143.969,1603.178,127.679C1612.674,111.322,1612.553,91.327,1603.468,74.738C1593.996,57.442,1577.168,43.216,1557.474,44.222C1538.945,45.169,1528.223,62.982,1518.959,79.056C1509.712,95.1,1499.71,113.284,1508.178,129.753C1517.15,147.203,1537.858,154.392,1557.474,153.964" fill="rgba(28, 83, 142, 0.4)" class="triangle-float2"></path><path d="M537.46,766.611C596.772,767.915,643.691,720.931,671.425,668.487C697.223,619.703,698.452,561.915,671.033,514.024C643.438,465.825,592.995,435.157,537.46,434.496C480.757,433.822,425.354,460.96,398.267,510.779C372.195,558.732,387.238,614.867,413.324,662.812C440.953,713.593,479.663,765.34,537.46,766.611" fill="rgba(28, 83, 142, 0.4)" class="triangle-float1"></path><path d="M1526.516,494.441C1544.272,493.961,1558.121,480.516,1566.449,464.827C1574.21,450.206,1574.717,433.051,1566.831,418.497C1558.538,403.19,1543.909,390.369,1526.516,391.124C1510.003,391.841,1500.103,407.436,1491.839,421.751C1483.576,436.065,1475.544,452.176,1482.66,467.093C1490.61,483.759,1508.058,494.94,1526.516,494.441" fill="rgba(28, 83, 142, 0.4)" class="triangle-float2"></path><path d="M1125.69 362.32 a122.09 122.09 0 1 0 244.18 0 a122.09 122.09 0 1 0 -244.18 0z" fill="rgba(28, 83, 142, 0.4)" class="triangle-float2"></path><path d="M7.66,298.809C40.427,299.059,72.792,285.291,89.284,256.976C105.874,228.492,102.496,193.157,85.723,164.781C69.261,136.932,39.938,116.711,7.66,118.89C-21.886,120.885,-39.183,148.612,-54.057,174.218C-69.032,199.997,-85.071,229.033,-71.838,255.748C-57.5,284.692,-24.64,298.563,7.66,298.809" fill="rgba(28, 83, 142, 0.4)" class="triangle-float1"></path><path d="M923.74 539.81 a185.78 185.78 0 1 0 371.56 0 a185.78 185.78 0 1 0 -371.56 0z" fill="rgba(28, 83, 142, 0.4)" class="triangle-float1"></path><path d="M922.563,264.054C939.659,265.232,959.266,262.931,967.786,248.062C976.278,233.241,967.647,215.635,958.612,201.139C950.253,187.728,938.363,175.196,922.563,175.508C907.147,175.813,896.134,188.9,888.901,202.517C882.194,215.144,880.123,229.949,886.985,242.493C894.118,255.533,907.735,263.032,922.563,264.054" fill="rgba(28, 83, 142, 0.4)" class="triangle-float3"></path><path d="M577.2 427.76 a132.44 132.44 0 1 0 264.88 0 a132.44 132.44 0 1 0 -264.88 0z" fill="rgba(28, 83, 142, 0.4)" class="triangle-float3"></path></g><defs><mask id="SvgjsMask1050"><rect width="1920" height="560" fill="#ffffff"></rect></mask><linearGradient x1="82.29%" y1="-60.71%" x2="17.71%" y2="160.71%" gradientUnits="userSpaceOnUse" id="SvgjsLinearGradient1051"><stop stop-color="#0e2a47" offset="0"></stop><stop stop-color="rgba(237, 237, 237, 1)" offset="0.25"></stop><stop stop-color="rgba(237, 237, 237, 1)" offset="0.28"></stop><stop stop-color="rgba(237, 237, 237, 1)" offset="0.45"></stop><stop stop-color="rgba(237, 237, 237, 1)" offset="0.57"></stop><stop stop-color="rgba(237, 237, 237, 1)" offset="0.68"></stop><stop stop-color="rgba(255, 255, 255, 1)" offset="0.77"></stop><stop stop-color="rgba(237, 237, 237, 1)" offset="1"></stop></linearGradient><style>
            @keyframes float1 {
                0%{transform: translate(0, 0)}
                50%{transform: translate(-10px, 0)}
                100%{transform: translate(0, 0)}
            }

            .triangle-float1 {
                animation: float1 5s infinite;
            }

            @keyframes float2 {
                0%{transform: translate(0, 0)}
                50%{transform: translate(-5px, -5px)}
                100%{transform: translate(0, 0)}
            }

            .triangle-float2 {
                animation: float2 4s infinite;
            }

            @keyframes float3 {
                0%{transform: translate(0, 0)}
                50%{transform: translate(0, -10px)}
                100%{transform: translate(0, 0)}
            }

            .triangle-float3 {
                animation: float3 6s infinite;
            }
        </style></defs></svg>