<svg xmlns="http://www.w3.org/2000/svg" version="1.1" xmlns:xlink="http://www.w3.org/1999/xlink" xmlns:svgjs="http://svgjs.com/svgjs" width="1920" height="1000" preserveAspectRatio="none" viewBox="0 0 1920 1000"><g mask="url(&quot;#SvgjsMask1036&quot;)" fill="none"><rect width="1920" height="1000" x="0" y="0" fill="rgba(239, 239, 239, 1)"></rect><path d="M-131.88 798.84 a179.1 179.1 0 1 0 358.2 0 a179.1 179.1 0 1 0 -358.2 0z" fill="rgba(192, 203, 219, 1)" class="triangle-float2"></path><path d="M814.314,1012.807C911.854,1009.45,1010.154,976.993,1059.807,892.97C1110.229,807.646,1101.485,699.806,1048.941,615.772C999.414,536.563,907.658,504.056,814.314,500.35C712.33,496.301,602.066,511.122,545.039,595.768C482.109,689.177,476.604,816.318,537.699,910.938C594.825,999.411,709.063,1016.429,814.314,1012.807" fill="rgba(192, 203, 219, 1)" class="triangle-float1"></path><path d="M458.4 543.11 a307.19 307.19 0 1 0 614.38 0 a307.19 307.19 0 1 0 -614.38 0z" fill="rgba(192, 203, 219, 1)" class="triangle-float1"></path><path d="M876.25 783.16 a240.93 240.93 0 1 0 481.86 0 a240.93 240.93 0 1 0 -481.86 0z" fill="rgba(192, 203, 219, 1)" class="triangle-float2"></path><path d="M-14.91 638.37 a184.1 184.1 0 1 0 368.2 0 a184.1 184.1 0 1 0 -368.2 0z" fill="rgba(192, 203, 219, 1)" class="triangle-float2"></path><path d="M468.489,1076.99C552.642,1080.452,652.891,1091.732,697.282,1020.156C742.839,946.699,696.395,856.248,651.018,782.68C608.609,713.924,549.271,649.521,468.489,649.223C387.311,648.924,323.35,710.536,283.613,781.325C244.848,850.384,228.146,935.435,270.133,1002.584C310.261,1066.759,392.865,1073.879,468.489,1076.99" fill="rgba(192, 203, 219, 1)" class="triangle-float3"></path><path d="M770.57 482.77 a318.21 318.21 0 1 0 636.42 0 a318.21 318.21 0 1 0 -636.42 0z" fill="rgba(192, 203, 219, 1)" class="triangle-float2"></path><path d="M-78.37 189.73 a292.63 292.63 0 1 0 585.26 0 a292.63 292.63 0 1 0 -585.26 0z" fill="rgba(192, 203, 219, 1)" class="triangle-float3"></path><path d="M1423.67 241.76 a167.64 167.64 0 1 0 335.28 0 a167.64 167.64 0 1 0 -335.28 0z" fill="rgba(192, 203, 219, 1)" class="triangle-float3"></path><path d="M1696.886,1078.126C1778.637,1074.45,1846.622,1020.221,1885.558,948.243C1922.51,879.932,1924.949,797.302,1884.736,730.858C1845.85,666.606,1771.962,638.505,1696.886,636.502C1617.436,634.382,1534.98,654.26,1490.831,720.348C1441.868,793.643,1432.352,890.262,1476.343,966.645C1520.405,1043.151,1608.688,1082.092,1696.886,1078.126" fill="rgba(192, 203, 219, 1)" class="triangle-float1"></path><path d="M240.64 683.07 a170.1 170.1 0 1 0 340.2 0 a170.1 170.1 0 1 0 -340.2 0z" fill="rgba(192, 203, 219, 1)" class="triangle-float3"></path><path d="M1425.54 277.07 a300.8 300.8 0 1 0 601.6 0 a300.8 300.8 0 1 0 -601.6 0z" fill="rgba(192, 203, 219, 1)" class="triangle-float1"></path><path d="M1507.07 65.12 a252.92 252.92 0 1 0 505.84 0 a252.92 252.92 0 1 0 -505.84 0z" fill="rgba(192, 203, 219, 1)" class="triangle-float3"></path><path d="M474.114,391.139C540.578,389.632,602.451,356.858,636.068,299.503C670.071,241.491,673.883,168.254,638.136,111.3C604.278,57.355,537.659,37.175,474.114,41.465C417.916,45.259,375.443,84.105,344.435,131.128C308.678,185.354,269.927,249.022,298.917,307.148C329.897,369.264,404.719,392.713,474.114,391.139" fill="rgba(192, 203, 219, 1)" class="triangle-float2"></path><path d="M918.86 729.08 a207.35 207.35 0 1 0 414.7 0 a207.35 207.35 0 1 0 -414.7 0z" fill="rgba(192, 203, 219, 1)" class="triangle-float3"></path><path d="M171.397,884.124C248.794,879.591,318.064,843.778,361.584,779.615C412.222,704.958,452.392,611.666,410.329,531.863C366.294,448.319,265.774,415.351,171.397,418.785C83.141,421.997,6.49,472.646,-39.2,548.222C-86.736,626.851,-110.545,726.565,-61.738,804.411C-14.98,878.99,83.523,889.271,171.397,884.124" fill="rgba(192, 203, 219, 1)" class="triangle-float1"></path><path d="M1093.281,796.146C1152.546,791.593,1209.711,767.472,1238.914,715.701C1267.655,664.75,1256.563,604.732,1230.91,552.159C1200.715,490.279,1162.092,419.689,1093.281,417.246C1022.113,414.72,973.667,480.333,937.618,541.748C900.951,604.217,865.141,679.723,902.947,741.509C939.871,801.855,1022.743,801.565,1093.281,796.146" fill="rgba(192, 203, 219, 1)" class="triangle-float2"></path></g><defs><mask id="SvgjsMask1036"><rect width="1920" height="1000" fill="#ffffff"></rect></mask><style>
            @keyframes float1 {
                0%{transform: translate(0, 0)}
                50%{transform: translate(-10px, 0)}
                100%{transform: translate(0, 0)}
            }

            .triangle-float1 {
                animation: float1 5s infinite;
            }

            @keyframes float2 {
                0%{transform: translate(0, 0)}
                50%{transform: translate(-5px, -5px)}
                100%{transform: translate(0, 0)}
            }

            .triangle-float2 {
                animation: float2 4s infinite;
            }

            @keyframes float3 {
                0%{transform: translate(0, 0)}
                50%{transform: translate(0, -10px)}
                100%{transform: translate(0, 0)}
            }

            .triangle-float3 {
                animation: float3 6s infinite;
            }
        </style></defs></svg>