<svg xmlns="http://www.w3.org/2000/svg" version="1.1" xmlns:xlink="http://www.w3.org/1999/xlink" xmlns:svgjs="http://svgjs.com/svgjs" width="1920" height="560" preserveAspectRatio="none" viewBox="0 0 1920 560"><g mask="url(&quot;#SvgjsMask1073&quot;)" fill="none"><rect width="1920" height="560" x="0" y="0" fill="rgba(15, 100, 187, 0.85)"></rect><path d="M0,521.991C107.345,537.04,224.852,550.319,317.349,493.805C410.351,436.983,449.267,324.799,488.909,223.277C526.701,126.495,534.036,25.983,540.516,-77.714C548.644,-207.787,610.726,-357.081,531.648,-460.675C453.135,-563.529,295.183,-552.717,166.635,-567.508C56.323,-580.2,-54.032,-577.487,-158.586,-540.093C-259.029,-504.17,-355.079,-447.837,-414.909,-359.521C-471.688,-275.708,-450.227,-166.087,-477.92,-68.714C-511.381,48.939,-643.897,159.596,-594.355,271.433C-544.986,382.879,-377.21,364.829,-264.891,412.178C-174.994,450.075,-96.614,508.446,0,521.991" fill="rgba(12, 80, 150, 0.85)"></path><path d="M1920 1124.315C2054.53 1128.127 2183.498 1208.5720000000001 2312.786 1171.188 2460.023 1128.614 2611.316 1044.1970000000001 2676.618 905.5360000000001 2742.035 766.631 2702.866 599.205 2650.058 455.034 2603.374 327.58299999999997 2495.982 239.78500000000003 2398.258 145.587 2309.072 59.61900000000003 2223.073-32.61099999999999 2105.07-70.29100000000005 1985.525-108.46400000000006 1853.466-110.61300000000006 1736.247-65.80399999999997 1623.31-22.630999999999972 1552.01 81.15899999999999 1471.925 171.74099999999999 1391.0030000000002 263.27 1288.083 345.805 1266.087 465.981 1243.827 587.598 1307.324 704.021 1353.508 818.7080000000001 1401.828 938.7 1427.4189999999999 1087.906 1541.2649999999999 1149.3229999999999 1654.917 1210.635 1790.917 1120.6570000000002 1920 1124.315" fill="rgba(18, 120, 224, 0.85)"></path></g><defs><mask id="SvgjsMask1073"><rect width="1920" height="560" fill="#ffffff"></rect></mask></defs></svg>