<svg xmlns="http://www.w3.org/2000/svg" width="115" height="34" viewBox="0 0 115 34">
    <defs>
        <linearGradient id="vav61llyra" x1="61.034%" x2="26.502%" y1="4.948%" y2="71.908%">
            <stop offset="0%" stop-color="#00A0FF"/>
            <stop offset="1%" stop-color="#00A1FF"/>
            <stop offset="26%" stop-color="#00BEFF"/>
            <stop offset="51%" stop-color="#00D2FF"/>
            <stop offset="76%" stop-color="#00DFFF"/>
            <stop offset="100%" stop-color="#00E3FF"/>
        </linearGradient>
        <linearGradient id="75wsyhutab" x1="107.688%" x2="-130.64%" y1="50.001%" y2="50.001%">
            <stop offset="0%" stop-color="#FFE000"/>
            <stop offset="41%" stop-color="#FFBD00"/>
            <stop offset="78%" stop-color="orange"/>
            <stop offset="100%" stop-color="#FF9C00"/>
        </linearGradient>
        <linearGradient id="af0w449l6c" x1="86.219%" x2="-50.152%" y1="30.911%" y2="135.99%">
            <stop offset="0%" stop-color="#FF3A44"/>
            <stop offset="100%" stop-color="#C31162"/>
        </linearGradient>
        <linearGradient id="9qkvatezzd" x1="-18.752%" x2="42.122%" y1="-11.833%" y2="35.094%">
            <stop offset="0%" stop-color="#32A071"/>
            <stop offset="7%" stop-color="#2DA771"/>
            <stop offset="48%" stop-color="#15CF74"/>
            <stop offset="80%" stop-color="#06E775"/>
            <stop offset="100%" stop-color="#00F076"/>
        </linearGradient>
    </defs>
    <g fill="none" fill-rule="evenodd">
        <g>
            <g>
                <g>
                    <g>
                        <g>
                            <path fill="#000" fill-rule="nonzero" d="M110.77.157H5.009C2.673.157.779 2.05.779 4.387V29.77c0 2.336 1.894 4.23 4.23 4.23H110.77c2.336 0 4.23-1.894 4.23-4.23V4.387c0-2.336-1.894-4.23-4.23-4.23z" transform="translate(-675 -4926) translate(225 4125) translate(420 580) translate(30 182) translate(0 39)"/>
                            <path fill="#A6A6A6" fill-rule="nonzero" d="M110.77.833c.942 0 1.846.375 2.512 1.041.667.667 1.041 1.57 1.041 2.513V29.77c0 .942-.374 1.846-1.041 2.512-.666.667-1.57 1.041-2.512 1.041H5.009c-.942 0-1.846-.374-2.513-1.04-.666-.667-1.041-1.571-1.041-2.513V4.387c0-.942.375-1.846 1.041-2.513.667-.666 1.571-1.04 2.513-1.04H110.77zm0-.676H5.009c-1.122 0-2.198.445-2.991 1.239-.794.793-1.239 1.87-1.239 2.991V29.77c0 1.122.445 2.198 1.239 2.99.793.794 1.869 1.24 2.991 1.24H110.77c1.122 0 2.198-.446 2.991-1.24.793-.792 1.239-1.868 1.239-2.99V4.387c0-1.122-.446-2.198-1.239-2.991-.793-.794-1.869-1.24-2.991-1.24z" transform="translate(-675 -4926) translate(225 4125) translate(420 580) translate(30 182) translate(0 39)"/>
                            <path fill="#FFF" fill-rule="nonzero" d="M58.431 18.559c-.711.003-1.404.217-1.993.614-.589.397-1.048.96-1.317 1.617-.27.658-.339 1.38-.198 2.077.141.696.485 1.335.988 1.836.504.502 1.144.842 1.841.98.697.137 1.42.065 2.076-.208.656-.272 1.216-.733 1.611-1.324.394-.591.605-1.286.605-1.996.007-.476-.082-.948-.262-1.388-.179-.44-.445-.84-.782-1.176-.337-.336-.738-.6-1.18-.777-.441-.178-.914-.264-1.389-.255zm0 5.779c-.437.03-.873-.071-1.252-.292-.378-.22-.681-.55-.87-.945-.189-.395-.254-.838-.188-1.271.066-.433.261-.836.559-1.157.299-.32.686-.544 1.114-.641.427-.098.873-.064 1.281.096.408.16.758.438 1.005.8.248.361.38.789.381 1.227.014.277-.028.555-.123.816-.096.26-.242.5-.431.703-.19.204-.418.367-.671.481-.254.114-.527.176-.805.183zm-7.877-5.78c-.711.003-1.405.215-1.996.611-.59.396-1.049.958-1.32 1.616-.271.657-.341 1.38-.201 2.076.139.697.482 1.337.986 1.84.503.501 1.144.843 1.841.981.697.138 1.42.067 2.076-.206.657-.272 1.218-.733 1.613-1.324.394-.591.605-1.286.605-1.997.007-.476-.082-.948-.261-1.388-.18-.44-.446-.84-.783-1.176-.337-.336-.738-.6-1.179-.777-.442-.178-.914-.264-1.39-.255h.009zm0 5.78c-.437.032-.874-.068-1.254-.288-.379-.219-.684-.547-.874-.942-.19-.395-.257-.838-.192-1.272.066-.433.26-.837.558-1.159.298-.321.685-.546 1.113-.644.427-.098.874-.065 1.282.094.408.16.759.438 1.007.8.248.362.381.79.382 1.228.014.277-.029.555-.124.816-.095.26-.242.5-.431.703-.189.204-.417.367-.671.481-.253.114-.527.176-.805.183h.009zm-9.383-4.67v1.522h3.655c-.058.717-.356 1.394-.846 1.92-.366.373-.806.665-1.291.858-.485.192-1.005.28-1.527.26-1.077 0-2.11-.428-2.871-1.19-.762-.762-1.19-1.794-1.19-2.872 0-1.077.428-2.11 1.19-2.871.761-.762 1.794-1.19 2.871-1.19 1.031-.017 2.026.376 2.767 1.092l1.074-1.075c-.5-.507-1.097-.908-1.755-1.18-.659-.271-1.365-.408-2.077-.402-.752-.03-1.503.094-2.206.361-.704.268-1.346.675-1.889 1.197-.542.521-.974 1.147-1.269 1.84-.294.693-.446 1.438-.446 2.19 0 .753.152 1.498.446 2.19.295.693.727 1.32 1.269 1.841.543.522 1.185.929 1.889 1.197.703.267 1.454.39 2.206.36.724.034 1.447-.09 2.12-.36.672-.27 1.279-.68 1.78-1.205.887-.973 1.36-2.254 1.32-3.57.003-.32-.026-.64-.085-.956l-5.135.042zm38.336 1.184c-.221-.65-.633-1.216-1.183-1.626-.55-.41-1.212-.642-1.897-.667-.463-.001-.921.093-1.346.276-.425.183-.808.452-1.125.789-.317.337-.562.735-.719 1.17-.157.436-.223.899-.194 1.36-.011.474.075.944.25 1.383.176.44.438.839.771 1.174.333.336.731.6 1.169.78.438.178.907.267 1.38.26.592.003 1.175-.14 1.698-.418.523-.278.969-.68 1.297-1.173l-1.226-.846c-.184.305-.443.558-.753.733-.31.175-.66.266-1.016.265-.366.014-.729-.082-1.039-.277-.311-.195-.556-.478-.704-.814l4.814-1.988-.177-.381zM74.6 22.053c-.018-.262.018-.524.103-.772.086-.248.22-.476.395-.671.175-.196.387-.354.624-.467.237-.112.494-.176.756-.188.273-.018.545.045.783.18.237.135.43.337.554.581L74.6 22.053zm-3.909 3.486h1.582V14.963h-1.582v10.576zm-2.589-6.176h-.06c-.238-.267-.53-.48-.857-.626-.326-.146-.68-.22-1.038-.22-.924.044-1.796.443-2.435 1.114-.638.67-.995 1.56-.995 2.486 0 .925.357 1.816.995 2.486.639.67 1.511 1.069 2.435 1.114.359.006.714-.067 1.042-.213.327-.146.618-.362.853-.633h.051v.516c0 1.379-.736 2.115-1.92 2.115-.395-.01-.778-.136-1.1-.363-.323-.228-.57-.546-.711-.915l-1.379.576c.259.631.702 1.17 1.27 1.55.568.377 1.237.577 1.92.573 1.852 0 3.384-1.091 3.384-3.748V18.77h-1.455v.593zm-1.811 4.975c-.546-.048-1.054-.3-1.424-.703-.37-.404-.575-.932-.575-1.48 0-.548.205-1.076.575-1.48.37-.404.878-.655 1.424-.703.271.014.536.082.78.2.244.117.461.283.64.486.179.204.316.441.402.698.086.257.119.529.099.799.023.271-.01.544-.095.803-.086.258-.223.497-.403.7-.18.205-.4.37-.646.487-.246.117-.513.182-.786.193h.009zm20.627-9.375h-3.782v10.576h1.583v-4.01h2.208c.451.032.904-.029 1.33-.18.426-.15.817-.386 1.148-.694.331-.308.595-.68.775-1.095.181-.415.274-.862.274-1.314 0-.452-.093-.9-.274-1.314-.18-.415-.444-.787-.775-1.095-.331-.308-.722-.545-1.148-.695-.426-.15-.879-.211-1.33-.179h-.009zm0 5.077H84.71v-3.605h2.242c.482 0 .943.191 1.284.532.34.34.531.802.531 1.283 0 .481-.191.943-.531 1.283-.341.34-.802.532-1.284.532l-.034-.026zm9.756-1.523c-.576-.035-1.15.1-1.65.387-.501.287-.906.714-1.168 1.229l1.405.583c.138-.255.348-.464.603-.603.256-.138.546-.199.835-.175.201-.023.405-.007.599.05.194.055.375.15.533.276.157.127.288.284.384.462.097.178.156.373.176.574v.11c-.508-.269-1.074-.408-1.649-.406-1.515 0-3.046.846-3.046 2.378.015.326.095.646.236.941.141.295.339.559.584.776.244.217.53.383.839.487.31.105.638.146.964.122.398.029.797-.05 1.154-.229.357-.178.66-.45.876-.786h.051v.846h1.523v-4.07c0-1.853-1.405-2.927-3.207-2.927l-.042-.025zm-.195 5.795c-.516 0-1.235-.262-1.235-.897 0-.846.897-1.125 1.692-1.125.503-.012.999.11 1.438.355-.052.459-.269.882-.61 1.193-.34.311-.781.488-1.242.5l-.043-.026zm8.994-5.542l-1.81 4.586h-.051l-1.879-4.586h-1.692l2.818 6.414-1.608 3.562h1.65l4.332-9.976h-1.76zM91.25 25.54h1.583V14.962H91.25v10.576zM36.407 12.23h-.626v-1.692h.533c.243-.258.427-.565.538-.901.111-.337.147-.693.105-1.045V6.08h3.385v4.45h.567v1.693h-.627v-1.066h-3.875v1.074zm1.176-3.613c.04.683-.128 1.361-.482 1.946h2.538V6.705h-2.056v1.912zm8.385 1.879c-.494.492-1.164.768-1.861.768-.698 0-1.367-.276-1.862-.768-.48-.51-.748-1.183-.748-1.883s.268-1.373.748-1.882c.244-.246.534-.44.854-.574.319-.133.662-.201 1.008-.201s.688.068 1.008.201c.319.133.609.328.853.574.483.508.752 1.182.752 1.882s-.269 1.375-.752 1.883zm-3.24-.423c.366.364.862.57 1.379.57s1.013-.206 1.379-.57c.361-.399.562-.918.562-1.456 0-.538-.201-1.056-.562-1.455-.366-.365-.862-.57-1.379-.57s-1.013.205-1.379.57c-.362.399-.562.917-.562 1.455s.2 1.057.562 1.456zm7.276 1.193c-.349.007-.696-.057-1.02-.188-.324-.13-.618-.326-.865-.573-.247-.248-.441-.542-.57-.867-.13-.324-.193-.671-.185-1.02-.008-.35.055-.697.185-1.021.129-.325.323-.62.57-.867.247-.247.541-.442.865-.573.324-.13.671-.195 1.02-.188.354-.009.705.063 1.028.21.322.146.607.364.833.636l-.456.44c-.168-.212-.383-.381-.629-.493-.246-.112-.515-.163-.784-.15-.26-.007-.519.04-.76.135-.241.096-.461.24-.645.424-.367.4-.57.924-.57 1.468 0 .543.203 1.067.57 1.468.184.183.404.327.645.423.241.096.5.142.76.135.297-.003.591-.072.859-.202.267-.13.503-.318.689-.551l.457.457c-.231.28-.519.505-.846.66-.361.163-.755.244-1.151.237zm4.653-.11h-.651v-4.45h-1.421v-.627h3.485v.626h-1.413v4.45zm5.898-5.077l-1.921 4.281c-.077.254-.23.477-.44.639-.209.162-.463.255-.728.267-.174-.002-.347-.04-.507-.11l.169-.601c.103.06.219.092.338.093.125.01.249-.02.356-.085.102-.086.18-.196.228-.321l.186-.406-1.692-3.748h.77l1.252 2.91 1.219-2.919h.77zm.736 5.077V6.079h3.672v5.077h-.652v-4.45h-2.369v4.45h-.651zm4.831 0V6.079h.651v2.175h2.539V6.079h.651v5.077h-.651V8.863h-2.539v2.293h-.651zm9.163-.66c-.495.492-1.164.768-1.861.768-.698 0-1.367-.276-1.862-.768-.481-.51-.748-1.183-.748-1.883s.267-1.373.748-1.882c.244-.246.534-.44.853-.574.32-.133.663-.201 1.009-.201.346 0 .688.068 1.008.201.319.133.609.328.853.574.483.508.752 1.182.752 1.882s-.269 1.375-.752 1.883zm-3.24-.423c.366.364.862.57 1.379.57s1.012-.206 1.379-.57c.361-.399.561-.918.561-1.456 0-.538-.2-1.056-.561-1.455-.367-.365-.862-.57-1.379-.57s-1.013.205-1.379.57c-.362.399-.562.917-.562 1.455s.2 1.057.562 1.456zm6.65 1.083V6.079h1.836c.381-.007.75.132 1.032.39.141.122.254.274.33.445.076.171.114.357.11.544.004.226-.061.447-.186.635-.124.182-.297.326-.499.414.245.082.46.235.617.44.163.208.25.465.246.728.004.195-.035.389-.114.567-.079.178-.196.337-.343.465-.295.272-.683.42-1.083.415l-1.946.034zm.651-2.902h1.185c.11.004.221-.015.323-.058.102-.042.194-.106.269-.188.075-.068.135-.15.178-.242.042-.092.066-.191.069-.292.003-.101-.014-.202-.051-.296-.036-.094-.092-.18-.162-.253-.071-.08-.158-.143-.256-.186-.098-.042-.204-.062-.311-.06h-1.21l-.034 1.575zm0 2.276h1.312c.114.004.228-.018.334-.063.105-.046.199-.114.275-.2.149-.154.234-.36.237-.575 0-.224-.089-.44-.248-.598-.159-.159-.374-.248-.598-.248h-1.286l-.026 1.684z" transform="translate(-675 -4926) translate(225 4125) translate(420 580) translate(30 182) translate(0 39)"/>
                            <path fill="#FFF" d="M44.107 6.04c-.335 0-.667.067-.976.195-.309.129-.589.317-.825.555-.465.493-.725 1.145-.725 1.823 0 .678.26 1.33.725 1.824.479.475 1.126.742 1.801.742s1.322-.267 1.801-.742c.467-.492.727-1.145.727-1.824 0-.678-.26-1.331-.728-1.823-.235-.238-.516-.426-.825-.555-.309-.128-.64-.195-.975-.195zm-1.041.04c.33-.138.684-.209 1.041-.209.357 0 .711.07 1.04.208.33.137.63.339.881.592l.002.001c.497.524.775 1.219.775 1.941 0 .723-.278 1.417-.775 1.941l-.002.002c-.511.507-1.201.792-1.921.792s-1.411-.285-1.921-.792l-.002-.002c-.496-.525-.772-1.22-.772-1.94 0-.722.276-1.417.772-1.941l.001-.002c.252-.253.551-.455.881-.592zm30.358-.04c-.335 0-.667.067-.976.195-.309.129-.589.317-.825.555-.465.493-.725 1.145-.725 1.823 0 .678.259 1.33.725 1.824.479.475 1.126.742 1.801.742.674 0 1.322-.267 1.801-.742.467-.493.727-1.145.727-1.824 0-.678-.26-1.331-.728-1.823-.235-.238-.516-.426-.825-.555-.309-.128-.64-.195-.975-.195zm-1.041.04c.33-.138.683-.209 1.041-.209.357 0 .711.07 1.04.208.33.137.629.339.881.592l.001.001c.498.524.775 1.219.775 1.941 0 .723-.277 1.417-.775 1.941l-.001.002c-.511.507-1.201.792-1.921.792s-1.411-.285-1.921-.792l-.002-.002c-.496-.525-.772-1.22-.772-1.94 0-.722.276-1.417.772-1.941l.001-.002c.252-.253.551-.455.881-.592zm-21.386.176c-.311-.142-.65-.21-.991-.202h-.004c-.338-.007-.673.055-.987.181-.313.127-.598.315-.836.555-.239.239-.426.524-.552.838-.125.314-.186.65-.178.988v.003c-.008.338.053.674.178.988.126.314.313.599.552.838.238.24.523.428.836.555.314.126.649.188.987.181l.002.085.002-.085c.383.008.764-.07 1.113-.229.292-.139.553-.336.767-.579l-.337-.336c-.183.21-.407.38-.657.502-.279.136-.585.208-.895.21-.271.008-.54-.04-.792-.14s-.481-.251-.674-.443l-.002-.002c-.382-.417-.593-.96-.593-1.525s.212-1.109.593-1.525l.002-.003c.193-.192.422-.342.674-.442.251-.1.519-.148.79-.141.282-.014.563.04.82.157.23.105.434.257.6.446l.334-.321c-.209-.235-.465-.424-.752-.554zm-.993 5.094c-.36.007-.718-.059-1.052-.194-.335-.135-.638-.336-.893-.591-.255-.256-.455-.56-.589-.895-.134-.335-.198-.693-.19-1.053-.008-.36.056-.718.19-1.052.134-.335.334-.64.589-.895.255-.255.558-.457.893-.592.334-.134.692-.2 1.052-.193.366-.01.729.065 1.063.217.334.151.629.377.863.66l.051.06-.581.559-.058-.073c-.159-.202-.363-.363-.597-.469-.233-.106-.489-.155-.745-.142h-.007c-.248-.006-.495.037-.726.13-.23.09-.439.228-.615.402-.352.385-.547.888-.547 1.41 0 .521.195 1.024.547 1.409.176.175.385.312.615.403.231.092.478.136.726.13h.002c.285-.003.566-.07.823-.194.256-.125.482-.305.66-.528l.059-.074.578.578-.049.06c-.238.288-.537.522-.875.682h-.001c-.373.17-.778.253-1.186.245zm31.502-4.82c-.266-.242-.614-.373-.974-.366h-1.753v4.906l1.86-.033h.003c.379.005.746-.135 1.024-.392l.002-.002c.138-.12.248-.268.322-.435.074-.167.11-.348.106-.531v-.003c.004-.244-.077-.482-.227-.674l-.001-.001c-.147-.192-.348-.335-.577-.411l-.209-.07.202-.088c.187-.082.347-.215.463-.384.115-.174.175-.378.171-.586v-.003c.004-.175-.031-.348-.102-.508-.071-.16-.176-.302-.308-.417l-.002-.001zm.113-.125c-.297-.27-.687-.418-1.089-.41h-1.92v5.247l2.03-.036h.001c.421.006.829-.15 1.139-.436.156-.136.281-.304.365-.494.083-.189.125-.394.12-.601v.001h-.084l.084-.003v.002c.004-.282-.089-.557-.263-.78-.129-.169-.296-.305-.486-.398.147-.091.273-.213.371-.356V8.14c.135-.202.204-.44.201-.682v.002l-.085-.002.085-.001v.001c.003-.199-.037-.396-.118-.578-.081-.182-.2-.344-.351-.475zm-44.746-.41h3.553v4.45h.567v1.861h-.795V11.24h-3.706v1.075h-.795v-1.861h.58c.223-.244.391-.531.495-.844.107-.325.142-.669.101-1.008V5.995zm.169.169v2.423c.042.362.005.73-.11 1.076-.115.348-.305.667-.556.933l-.025.027h-.485v1.523h.457V11.07h4.044v1.066h.457v-1.523h-.567v-4.45h-3.215zm15.458-.17h3.655v.796h-1.413v4.45h-.821V6.79H52.5v-.795zm.169.17v.457h1.422v4.45h.482v-4.45h1.413v-.457h-3.317zm7.059-.17h.957l-1.972 4.396c-.082.268-.245.504-.467.676-.223.173-.494.272-.776.284h-.005c-.186-.002-.37-.042-.54-.117l-.068-.03.219-.776.095.055c.09.052.192.08.296.082h.006c.104.007.209-.017.299-.07.089-.076.157-.173.199-.282l.002-.005.17-.371-1.73-3.833h.957l1.195 2.778 1.163-2.786zm.113.17l-1.273 3.051-1.31-3.043h-.583l1.654 3.664-.201.439c-.053.137-.139.258-.252.353l-.005.004-.005.004c-.122.073-.262.107-.403.097-.097-.002-.192-.021-.281-.057l-.121.43c.129.047.266.073.404.075.246-.011.483-.098.678-.249.195-.151.338-.36.41-.596l.002-.005 1.869-4.167h-.583zm1.365-.17h3.841v5.246h-.82V6.79h-2.2v4.45h-.821V5.995zm.169.17v4.907h.483v-4.45h2.538v4.45h.482V6.164h-3.503zm4.662-.17h.821V8.17h2.369V5.995h.821v5.245h-.821V8.947h-2.369v2.293h-.821V5.995zm.17.17v4.907h.482V8.778h2.707v2.293h.483V6.164h-.483v2.174h-2.707V6.164h-.482zm-23.539.938c.382-.38.899-.594 1.439-.594.539 0 1.056.214 1.439.594l.003.003c.375.414.583.953.583 1.512 0 .56-.208 1.099-.583 1.513l-.003.003c-.382.38-.9.594-1.439.594-.54 0-1.057-.214-1.439-.594l.06-.06-.063.057c-.376-.414-.584-.954-.584-1.513 0-.559.208-1.098.584-1.512l.003-.003zm.121 2.912c.35.348.824.544 1.318.544.494 0 .967-.196 1.318-.544.346-.382.538-.88.538-1.397 0-.516-.192-1.014-.538-1.396-.351-.348-.824-.544-1.318-.544-.494 0-.968.196-1.318.544-.347.382-.538.88-.538 1.396 0 .517.191 1.015.538 1.397zm29.196-2.912c.382-.38.899-.594 1.439-.594.539 0 1.056.214 1.438.594l.003.003c.376.414.584.953.584 1.512 0 .56-.208 1.099-.584 1.513l-.002.003c-.383.38-.9.594-1.439.594-.54 0-1.057-.214-1.439-.594l.06-.06-.063.057c-.376-.414-.584-.954-.584-1.513 0-.559.208-1.098.584-1.512l.003-.003zm.121 2.912c.35.348.824.544 1.318.544.493 0 .967-.196 1.318-.544.346-.382.538-.88.538-1.397 0-.516-.192-1.014-.538-1.396-.351-.348-.825-.544-1.318-.544-.494 0-.968.196-1.318.544-.347.382-.539.88-.539 1.396 0 .517.192 1.015.539 1.397zm8.483-3.419c.118-.003.236.02.345.067.109.047.206.117.285.206.078.08.139.175.179.28.041.104.06.216.056.329-.003.112-.029.223-.076.325-.047.1-.113.191-.195.266-.083.09-.184.16-.297.206-.113.047-.235.07-.357.064H79.26l.037-1.743h1.292zm.278.222c-.086-.037-.18-.055-.275-.053h-1.129l-.03 1.405h1.101c.099.004.197-.013.288-.05.09-.039.172-.096.239-.168l.002-.003.003-.002c.067-.06.12-.134.158-.215.038-.082.058-.17.061-.26.003-.09-.012-.179-.045-.262-.032-.084-.081-.16-.144-.225l-.003-.003c-.062-.07-.139-.126-.226-.164zm-43.368-.196h2.225v4.027h-2.773l.078-.128c.345-.57.509-1.232.47-1.898V6.621zm.169.169v1.825c.037.65-.109 1.295-.42 1.864h2.307v-3.69h-1.887zm41.62 1.971h1.37c.246 0 .483.098.658.273.174.174.272.411.272.658v.001c-.003.236-.096.462-.259.632-.084.094-.188.17-.304.22-.116.05-.242.073-.369.07H79.26l.028-1.854zm.167.17l-.023 1.514h1.228c.103.003.204-.016.298-.056s.178-.101.245-.178l.003-.002c.134-.14.21-.324.213-.518 0-.201-.08-.395-.223-.537-.143-.143-.336-.223-.538-.223h-1.203z" transform="translate(-675 -4926) translate(225 4125) translate(420 580) translate(30 182) translate(0 39)"/>
                            <path fill="url(#vav61llyra)" fill-rule="nonzero" d="M9.612 6.536c-.276.33-.415.755-.39 1.185v18.715c-.025.43.114.854.39 1.184l.059.06 10.483-10.475v-.245L9.671 6.477l-.059.059z" transform="translate(-675 -4926) translate(225 4125) translate(420 580) translate(30 182) translate(0 39)"/>
                            <path fill="url(#75wsyhutab)" fill-rule="nonzero" d="M23.623 20.7l-3.469-3.495v-.245l3.469-3.503.076.042 4.154 2.36c1.185.67 1.185 1.77 0 2.446l-4.137 2.352-.093.043z" transform="translate(-675 -4926) translate(225 4125) translate(420 580) translate(30 182) translate(0 39)"/>
                            <path fill="url(#af0w449l6c)" fill-rule="nonzero" d="M23.724 20.649l-3.57-3.57L9.612 27.62c.241.213.549.334.87.343.322.01.636-.094.889-.292l12.362-7.022" transform="translate(-675 -4926) translate(225 4125) translate(420 580) translate(30 182) translate(0 39)"/>
                            <path fill="url(#9qkvatezzd)" fill-rule="nonzero" d="M23.724 13.508L11.363 6.485c-.253-.198-.568-.301-.889-.292-.322.01-.63.13-.871.343l10.551 10.542 3.57-3.57z" transform="translate(-675 -4926) translate(225 4125) translate(420 580) translate(30 182) translate(0 39)"/>
                            <path fill="#000" fill-rule="nonzero" d="M23.623 20.573l-12.26 6.98c-.244.182-.541.281-.846.281-.305 0-.602-.099-.846-.281l-.059.059.059.06c.243.183.54.283.846.283.305 0 .602-.1.846-.284l12.361-7.022-.101-.076z" opacity=".2" transform="translate(-675 -4926) translate(225 4125) translate(420 580) translate(30 182) translate(0 39)"/>
                            <path fill="#000" fill-rule="nonzero" d="M9.612 27.502c-.276-.33-.415-.755-.39-1.184v.126c-.025.43.114.854.39 1.185l.059-.06-.059-.067zm18.241-9.324l-4.23 2.395.076.076 4.154-2.352c.236-.111.438-.282.587-.496.148-.214.238-.463.259-.723-.047.236-.148.458-.295.649-.147.19-.335.345-.551.451z" opacity=".12" transform="translate(-675 -4926) translate(225 4125) translate(420 580) translate(30 182) translate(0 39)"/>
                            <path fill="#FFF" fill-rule="nonzero" d="M11.363 6.603l16.49 9.375c.216.106.404.26.551.451.147.191.248.413.295.649-.021-.26-.111-.51-.259-.723-.149-.214-.351-.385-.587-.496l-16.49-9.374c-1.184-.669-2.149-.11-2.149 1.243v.127c.025-1.362.973-1.92 2.149-1.252z" opacity=".25" transform="translate(-675 -4926) translate(225 4125) translate(420 580) translate(30 182) translate(0 39)"/>
                        </g>
                    </g>
                </g>
            </g>
        </g>
    </g>
</svg>
