<?xml version="1.0" encoding="UTF-8"?>
<!DOCTYPE svg PUBLIC "-//W3C//DTD SVG 1.1//EN" "http://www.w3.org/Graphics/SVG/1.1/DTD/svg11.dtd">
<!-- Creator: CorelDRAW 2020 (64-Bit) -->
<svg xmlns="http://www.w3.org/2000/svg" xml:space="preserve" width="82.7418mm" height="17.8831mm" version="1.1" style="shape-rendering:geometricPrecision; text-rendering:geometricPrecision; image-rendering:optimizeQuality; fill-rule:evenodd; clip-rule:evenodd"
viewBox="0 0 91918 19866"
 xmlns:xlink="http://www.w3.org/1999/xlink"
 xmlns:xodm="http://www.corel.com/coreldraw/odm/2003">
 <defs>
  <style type="text/css">
   <![CDATA[
    .fil1 {fill:#E31E24}
    .fil0 {fill:#1C1B17}
    .fil3 {fill:#E31E24;fill-rule:nonzero}
    .fil2 {fill:#1C1B17;fill-rule:nonzero}
   ]]>
  </style>
 </defs>
 <g id="Слой_x0020_1">
  <metadata id="CorelCorpID_0Corel-Layer"/>
  <g id="_1971275925440">
   <polygon class="fil0" points="9644,15475 11523,14390 14096,12904 14096,9933 14096,8711 17899,10907 17899,15100 13424,17684 9644,19866 "/>
   <polygon class="fil1" points="3803,12904 3803,12904 6376,14390 8129,15402 8129,19793 4475,17684 0,15100 0,10709 "/>
   <polygon class="fil0" points="8129,4464 6376,5476 3803,6962 3803,9933 3803,11155 0,8959 0,4766 4475,2183 8129,73 "/>
   <polygon class="fil1" points="9644,0 13424,2183 17899,4766 17899,9157 13010,6335 11523,5476 9644,4391 "/>
   <polygon class="fil1" points="8949,5240 10982,6413 13014,7586 13014,9933 13014,12280 10982,13453 8949,14626 6917,13453 4885,12280 4885,9933 4885,7586 6917,6413 "/>
   <path class="fil2" d="M29554 3952l-1636 1831 -4946 0 0 4523 4097 0 0 -1415 -1524 0 -1499 -1665 5246 0 0 3080 -1649 1831 -5221 0 -1674 -1831 0 -4486 1674 -1868 7132 0zm10154 0l-1636 1831c-2390,0 -4779,0 -7169,0l0 -1831 8805 0zm-1074 3274l-1499 1665c-2082,0 -4133,-28 -6232,-28l0 -1637c2577,0 5154,0 7731,0zm812 3080l-1649 1831 -6894 0 0 -1831c2848,0 5695,0 8543,0zm10479 1831l-1686 0 -5221 -4773 0 4773 -2223 -14 0 -8172 1557 0 5350 4891 0 -4875 25 -16 2198 0 0 8186zm10416 -8186l-1636 1831c-2390,0 -4779,0 -7169,0l0 -1831 8805 0zm-1074 3274l-1499 1665c-2081,0 -4133,-28 -6232,-28l0 -1637c2577,0 5154,0 7731,0zm812 3080l-1649 1831 -6894 0 0 -1831c2848,0 5695,0 8543,0zm8500 1831l-7 -5 0 -2005 -670 -724 -1678 0 -1499 -1859 3189 0 595 -913 -579 -849 -4280 0 0 1762 0 1859 0 2733 -2223 0 0 -8186 7694 0 1674 2525 -1274 1901 1274 1415 0 2345 -2216 0zm10184 0l0 -2345 -1911 0 -1499 -1804 3410 0 0 -2206 -4484 0 0 2206 0 1804 0 2345 -2223 -14 0 -6341 1674 -1831 5583 0 1674 1831 0 6354 -2223 0zm13155 -1831l-2451 1831 -6894 0 0 -8174 18 -12 2205 0 0 6354 7122 0z"/>
   <path class="fil3" d="M67183 17250l-842 1161 -533 0 -3764 0 823 -847 2820 0 264 -313 -267 -341 -2824 0 -816 -1119 842 -1164 4297 0 -829 847 -2815 0 -270 324 270 343 2827 0 817 1110zm-4926 -2624l-823 847 -2488 0 0 667 2771 0 -754 770 -2017 0 0 654 3179 0 -829 847 -3468 0 0 -3785 4429 0zm-5240 3785l-848 0 -2626 -2207 0 2207 -1118 -6 0 -3779 783 0 2691 2261 0 -2254 13 -8 1106 0 0 3785zm-5108 -3785l-823 847 -1099 0 0 2938 -1118 0 0 -2938 -1099 0 -823 -847 4963 0zm-5598 3785l-1118 -6 0 -3773 9 -5 1109 0 0 3785zm-1539 -3785l-823 847 -2488 0 0 667 2771 0 -754 770 -2017 0 0 1501 -1118 0 0 -3785 1934 0 2495 0zm27549 2624l-842 1161 -533 0 -3764 0 823 -847 2820 0 264 -313 -267 -341 -2824 0 -816 -1119 842 -1164 4297 0 -829 847 -2815 0 -270 324 270 343 2827 0 817 1110z"/>
  </g>
 </g>
</svg>
