<?xml version="1.0" encoding="UTF-8"?>
<!DOCTYPE svg PUBLIC "-//W3C//DTD SVG 1.1//EN" "http://www.w3.org/Graphics/SVG/1.1/DTD/svg11.dtd">
<!-- Creator: CorelDRAW 2020 (64-Bit) -->
<svg xmlns="http://www.w3.org/2000/svg" xml:space="preserve" width="82.7418mm" height="17.8828mm" version="1.1" style="shape-rendering:geometricPrecision; text-rendering:geometricPrecision; image-rendering:optimizeQuality; fill-rule:evenodd; clip-rule:evenodd"
viewBox="0 0 8274 1788"
 xmlns:xlink="http://www.w3.org/1999/xlink"
 xmlns:xodm="http://www.corel.com/coreldraw/odm/2003">
 <defs>
  <style type="text/css">
   <![CDATA[
    .fil0 {fill:#FEFEFE}
    .fil1 {fill:#FEFEFE;fill-rule:nonzero}
   ]]>
  </style>
 </defs>
 <g id="Слой_x0020_1">
  <metadata id="CorelCorpID_0Corel-Layer"/>
  <g id="_2286894041936">
   <polygon class="fil0" points="868,1393 1037,1295 1269,1162 1269,894 1269,784 1611,982 1611,1359 1208,1592 868,1788 "/>
   <polygon class="fil0" points="342,1162 342,1162 574,1295 732,1386 732,1782 403,1592 0,1359 0,964 "/>
   <polygon class="fil0" points="732,402 574,493 342,627 342,894 342,1004 0,806 0,429 403,197 732,7 "/>
   <polygon class="fil0" points="868,0 1208,197 1611,429 1611,824 1171,570 1037,493 868,395 "/>
   <polygon class="fil0" points="806,472 989,577 1171,683 1171,894 1171,1105 989,1211 806,1317 623,1211 440,1105 440,894 440,683 623,577 "/>
   <path class="fil1" d="M2660 356l-147 165 -445 0 0 407 369 0 0 -127 -137 0 -135 -150 472 0 0 277 -148 165 -470 0 -151 -165 0 -404 151 -168 642 0 0 0zm914 0l-147 165c-215,0 -430,0 -645,0l0 -165 793 0zm-97 295l-135 150c-187,0 -372,-3 -561,-3l0 -147c232,0 464,0 696,0l0 0zm73 277l-148 165 -621 0 0 -165c256,0 513,0 769,0l0 0zm943 165l-152 0 -470 -430 0 430 -200 -1 0 -736 140 0 482 440 0 -439 2 -1 198 0 0 737zm938 -737l-147 165c-215,0 -430,0 -645,0l0 -165 793 0zm-97 295l-135 150c-187,0 -372,-3 -561,-3l0 -147c232,0 464,0 696,0l0 0zm73 277l-148 165 -621 0 0 -165c256,0 513,0 769,0l0 0zm765 165l-1 0 0 -180 -60 -65 -151 0 -135 -167 287 0 54 -82 -52 -76 -385 0 0 159 0 167 0 246 -200 0 0 -737 693 0 151 227 -115 171 115 127 0 211 -199 0 0 0zm917 0l0 -211 -172 0 -135 -162 307 0 0 -199 -404 0 0 199 0 162 0 211 -200 -1 0 -571 151 -165 503 0 151 165 0 572 -200 0 0 0zm1184 -165l-221 165 -621 0 0 -736 2 -1 198 0 0 572 641 0 0 0z"/>
   <path class="fil1" d="M6048 1553l-76 105 -48 0 -339 0 74 -76 254 0 24 -28 -24 -31 -254 0 -73 -101 76 -105 387 0 -75 76 -253 0 -24 29 24 31 254 0 74 100 0 0zm-443 -236l-74 76 -224 0 0 60 249 0 -68 69 -182 0 0 59 286 0 -75 76 -312 0 0 -341 399 0 0 0zm-472 341l-76 0 -236 -199 0 199 -101 -1 0 -340 70 0 242 204 0 -203 1 -1 100 0 0 341 0 0zm-460 -341l-74 76 -99 0 0 264 -101 0 0 -264 -99 0 -74 -76 447 0 0 0zm-504 341l-101 -1 0 -340 1 0 100 0 0 341 0 0zm-139 -341l-74 76 -224 0 0 60 249 0 -68 69 -182 0 0 135 -101 0 0 -341 174 0 225 0 0 0zm2480 236l-76 105 -48 0 -339 0 74 -76 254 0 24 -28 -24 -31 -254 0 -73 -101 76 -105 387 0 -75 76 -253 0 -24 29 24 31 254 0 74 100 0 0z"/>
  </g>
 </g>
</svg>
