<svg xmlns="http://www.w3.org/2000/svg" width="1104" height="719.386" viewBox="0 0 1104 719.386">
  <g id="Component_2_1" data-name="Component 2 – 1" transform="translate(0.5 0.5)">
    <g id="uz" transform="translate(-1 -1)">
      <path id="UZB354" d="M551.475,498.408l-2.984,2.321-6.41,6.41-.774.663-.774.332-.663-.111-.774.111-.442.221-.442.332-4.863,5.3-.553.884-.442.663-.11.442v.442l.11.442.111.332.332.774.442.663,1.989,2.542.221.332.221.332v.553l-.111.663-.332.332-.332.221-10.721,3.868-3.426,1.216-8.842,3.647-2.984,1.989-5.858,6.521-.995.995-1.989-2.542-1.547-.884-1.879.221-4.973,2.431-1.658.442-1.879-.442-1.989-.995-10.278-7.4-8.952-6.41-7.184-5.084-3.868-4.089-6.852-9.615-4.089-3.979-8.952-6.3L414.76,482.05l-10.389-7.515-8.731-6.3-7.515-5.305-3.758-3.758-.663-.442-4.642-5.858-.663-2.21-1.105-4.752-.221-1.879.221-1.768.553-1.547.332-1.547-.221-1.768-1.989-4.31-.221-1.768v-2.21l-.332-1.658-.442-1.547-1.658-3.316-.442-1.547-.221-3.537-.553-.774-5.3-3.095-3.095-.884-1.437-1.105-.221-.553,13.373-16.689,3.316-7.184-.774-2.874-2.1-3.205-10.5-11.826,14.478-6.963V361.14L361.6,335.721l22.767-8.621,5.416.111,1.989,4.752,1.658,2.763,10.721,12.82,8.731,15.362,1.547.884,5.637,1.216,8.4,3.316,9.947,5.637L457.753,385.9l1.437,2.542,2.321,2.321-.11,1.658,7.736-2.652,4.531-6.852,3.868-7.958,1.105-1.658,1.216-1.105,1.326-.442,1.216.332,1.216,1.105,1.326,1.989.332,2.874.111,5.526.884,1.879,2.763.995,17.352,2.1,1.437-1.437,1.989-7.515,1.216-.663,2.21-.884,8.51-.332,2.763-.553,2.1-.884L528.6,373.3l.774.111.553,1.989,1.437,8.621.553,2.21.884,2.542,2.21,1.768,2.21,1.326,6.41,1.547,19.452,1.326,3.095-.884-1.547,5.3-.332,2.1-.11,2.21v2.1l.11,1.768.332.995-.11.995-.884-.111-3.316-.663-.663-.111-.553.221-.553.442-.663,1.105-.11.995-1.768,5.416-1.437,1.658-1.105,1.105-1.437,4.642-.774,1.437-7.515-.111-1.437-.442-1.437-.995-1.216-1.105-1.326-.332h-1.437l-2.21.332-1.105.663-.553.663-.221.774-.11.884v.663l.332,1.658,1.658,1.658-1.105,3.095-.553.553-.332.111v.221l.11.332.663,1.216,1.879,1.879.995,1.326.332.553-.11.221-1.879.221-.442.111-.442.332-.442.332-.663.111-.884.774-3.095,6.189-.884,1.216-1.105,1.105-1.216.884-3.868,1.768-.553,1.105-.442.553-.221.332-2.1,2.652-1.105,2.321-.884,2.1.995,2.1L521.966,470l1.879,1.216,2.984,1.658.111.442.332.774.221.663.884.553h1.216l2.763-1.216.995.111.553.995,7.736,3.647,1.105,1.879.553,1.879v1.437l.221,1.768.553,1.768,1.216.663,1.547.553.995.553,1.105,1.216.995,1.326.332.553.332.884.663,2.21.11.553.111,2.321Z" transform="translate(37.939 34.309)" fill="#3e7ef2" stroke="#fff" stroke-linecap="round" stroke-linejoin="round" stroke-width="1"/>
      <path id="UZB355" d="M378.393,373.517l10.5,11.826,2.1,3.205.774,2.874-3.316,7.184-13.373,16.689-.111-.111-.553-1.989-.332-.774-2.431-3.205-.884-1.768-1.326-5.194-.774-1.216-2.1-2.321-.663-1.105-.553-1.768-.663-3.868-2.1-7.184-.663-1.658.442-.663-.332-1.216-.111-5.968-.221-1.768-.553-1.437-4.752-7.958-1.216-1.326-14.368-10.61-5.526-2.431-6.3-1.658-2.321-.332-1.437.774-.884,1.768-.663,2.984-1.547.884-1.216,2.763-1.879,1.989-2.21,1.105-2.431.111-2.542-1.105-6.631-4.752h-1.216l-3.758.663-.332-.774-.221-.774-.221-.221-1.216,2.1-.442.442-.442.442-3.095-3.205-4.421-1.105-12.931.774-7.847,2.652H265.22l-2.21-.553-1.768-1.326-3.537-3.537-3.868-2.874-6.189-3.205-7.073-3.647-1.768-1.768-.442-1.989.774-6.963.553-1.437.774-1.216,1.105-.995,2.652-1.326.884-.995-.553-1.658-4.31-6.079-1.879-3.758-.663-3.095,1.658-2.321,1.768-1.216,1.989-.221,2.431.774,2.21,1.437,1.326.553.995-.111.663-1.105-.111-1.216-.553-1.216-.774-.995-.884-.774-3.095-1.879-.995-.995-.663-1.105.774-.774.663-1.989-.111-.884-.663-1.547-.221-.332L244,292.5l.221-.332.442-.332.995-.221,1.768-.111,1.326-.553,3.316-2.321,1.216-1.105.332-.221,1.105-.111,1.326.995.663.442,3.205.774,3.205.332.884.774.221,1.768v3.868l.553,1.437,1.658,2.652.774,2.21,1.768,3.205.884,1.216,1.105.774,1.437.332h2.984l1.105.663.663,1.437,1.105,3.316,1.658,2.984,2.1,2.321,15.141,13.815,1.658.332.884.332.663.553,2.321,2.542,1.989,1.879,1.437.553,3.758.663,1.216.774,3.426,3.758.774,1.216.774,2.542.995.442.442.332,1.437.553,1.658-.111,1.105-.884,2.542-4.973,1.105-1.216.995-.774,1.105-.553,1.326-.332H332.2l12.268,2.984,3.095,1.326,2.984,1.768,3.758,2.874,10.942,12.157,7.626,12.268.332.221.884.553.884.332,3.426-1.105Z" transform="translate(24.903 30.111)" fill="#3e7ef2" stroke="#fff" stroke-linecap="round" stroke-linejoin="round" stroke-width="1"/>
      <path id="UZB356" d="M389.7,188.223l6.963,11.826,3.205,2.984,17.352,4.752.995.553v.884l-.442,1.105-17.462,33.046-16.468,31.72-3.537,8.289L378.871,301.4v.995l.221.884,7.294,13.484,1.326,2.763-.332.442-.774.774-13.815,7.847-1.326,1.216v1.105l.553,1.216,27.52,37.909,18.236,25.42v1.216L403.3,403.628l-3.426,1.105-.884-.332-.884-.553-.332-.221-7.626-12.268L379.2,379.2l-3.758-2.874-2.984-1.768-3.095-1.326L357.1,370.25h-3.426l-1.326.332-1.105.553-.995.774-1.105,1.216L346.6,378.1l-1.105.884-1.658.111-1.437-.553-.442-.332-.995-.442-.774-2.542-.774-1.216-3.426-3.758-1.216-.774-3.758-.663-1.437-.553-1.989-1.879-2.321-2.542-.663-.553-.884-.332-1.658-.332-15.141-13.815-2.1-2.321-1.658-2.984-1.105-3.316-.663-1.437-1.105-.663h-2.984l-1.437-.332-1.105-.774-.884-1.216-1.768-3.205-.774-2.21-1.658-2.652-.553-1.437v-3.868l-.221-1.768-.884-.774-3.205-.332-3.205-.774-.663-.442-1.326-.995-1.105.111-.332.221-1.216,1.105-3.316,2.321-1.326.553-1.768.111-.995.221-.442.332-.221.332.111.442.221.332.663,1.547.111.884-.663,1.989-.774.774-1.547-2.21-1.879-1.658-6.742-2.542-3.316.111-.884-.442-.774-1.216.111-1.105.774-.884,1.105-.332h.111l3.758-1.437-.221-3.426-1.216-4.31.553-3.979,1.105-.774,1.326-.553.995-.774.221-1.437-.774-1.105-1.437-.884-2.874-1.105-2.321-2.1-1.768-2.763-1.989-2.21-2.874-.332-2.874.332L239.5,290.9,225.91,293l-3.316-.111-1.547-.553-2.542-2.763-1.547-.553-3.316-.332-1.768-1.105-.884-1.547-.774-6.631-.553-1.658-.995-1.437L204.58,272,203.032,271l-1.547.221-1.879.884-1.879.553-1.879.111-2.874-.553-4.531-1.989-4.31-4.089-13.815-16.247-1.547-.995-1.216,1.989-.884,7.4-1.326,2.542-2.652.884-3.316-.221-3.316-.774-6.852-2.874h-1.658l-1.105.332-3.426,2.1-2.431,1.105-1.216.884-.553,1.216.332,1.768,1.216.995,8.068,3.868,2.21,1.768,1.989,2.984,1.768,4.089,4.752,7.736,2.542,3.095.774.663.332.774-.332.774-.774.442-4.089.663-1.105-.332-.663-1.105v-1.326l.332-1.547.221-1.547-.663-3.095-1.658-2.21-2.21-1.658-6.3-2.984-1.437-.332-1.216.221-2.321.995-.995.111-1.105-.553-1.437-2.21-.884-.884-1.216-.442-1.437-.111-1.437.332-1.216.553-.663.774-.553,1.105-1.658,1.879-1.768.774-1.105.884.442,2.321,1.326,2.984.111,1.326-.553,2.1-2.653,5.968-.884.995-2.431.884-.553,1.105.442,1.326.884.995.111.774-1.326.995-1.326.332-4.31-.221-1.216.332-3.647,1.768-1.437.221-.442-3.647-.553-2.21-.884-1.768L105,295.538l-1.547-1.216-3.426-1.879-2.763-.332-.663-.221-.663-.553-.884-.663-1.326-2.1-.774-.663-1.105-.221-1.658.111-3.647,1.216-2.763,1.547-1.658,1.547-.663.663-1.989,4.2L71.4,322.284l-.221,1.326v.442l-5.747,2.763-1.879,2.542v3.316l1.437,6.742-.221,3.316-.442,2.763-.111,2.652,1.216,3.095,1.437,2.321.663,2.321.221,2.431V361.3l.332,2.431.774,2.321,1.326,2.21,1.326,1.547.995.663.884.442,3.316.774.442.442-.111.553-.774.884-1.326.995L71.955,376l-1.326,1.547-1.989,3.537-1.216.774L59.576,380.2,53.5,378.982,39.13,378.1l-15.583-.774-11.936-.663-10.389-.553-.111-39.456V176.176L1,155.84V52.5l.221-.111L7.189,50.4l5.968-1.879,6.079-1.989,12.047-3.868,5.968-1.989L43.33,38.8,49.3,36.809l12.047-3.868,6.079-1.879,5.968-1.989,6.079-1.879L85.438,25.2l12.047-3.868,8.068-2.542,7.958-2.431,8.068-2.431,8.068-2.542,3.647-1.105,3.758-1.105,7.4-2.21,3.868-1.105,7.736-2.21,3.868-1.105L165.124,1l1.547.111,1.768.774.553.442-.111.111-.995,2.653-.221,1.658-.332.995-.884,1.879-.221,1.105v2.542l-.221.663-.221.221-.553.332-.221.221-.221.332-.553,1.658L161.919,19.9l-.332.553-.111.221-.663.663-2.984,4.2-.332.663-.111.663-.221,2.321-.774,2.431-.884,1.879-.332,1.437-.332,2.874-.332,1.437-.553,1.437L153.3,42l-.442.553-.884.884-.442.553-.221.663-.111.663-.221,1.326-.221,1.326-4.31,10.5-.553,4.089-.221,2.653.111,2.653,1.326,3.868,1.326,3.426,1.768,2.874,1.105,3.979-.111,2.1-.442,1.437-.553,1.326-1.326.884-1.547,2.21L147,91.517l-.442.884-.332.663-.111.774.442,3.316,1.105,3.647,1.658,1.547,1.216,1.326,2.542.442,3.095-.221,3.205-1.768,3.316-2.763,2.874-2.653,1.879-2.431.995-1.547.774-1.437,1.326-1.547,1.547-2.21,1.437-2.431,1.105-1.658,1.105-1.547.332-1.105-.884-1.658-1.326-.553-1.547-.663.884,2.1-1.105.332-1.547-.442-.663-1.105.663-3.426.774-1.547.442-1.105,1.326-.442.884-.442,1.326.442.332,1.768.332,1.105.884.884,1.326.332,2.1-.553L181.37,74.5l-.332-1.768L179.6,71.4l-.774-1.326.663-2.321.111-2.874-.774-2.984-.553-2.653V57.366l1.326-.332,1.768-.332.884-1.989.332-2.21.553-1.658.442-2.653-1.437-.884-1.437,1.105-1.105,2.21-2.431,1.437-1.547.221-1.658,1.326-1.879-1.326-.111-2.1.774-2.21,1.105-2.542.995-2.21,1.989-2.21.995-1.879,1.768-1.768,1.879-1.879,1.437-.663-2.984-2.21-1.658-2.1-1.437-5.637-.553-3.647-.221-2.431.221-2.763.884-3.205.995-2.653.553-1.326,6.3,4.31,8.179,5.526,5.637,3.758L213.974,32.83l9.836,6.521-.221.442-1.547,2.1-.884,1.768-1.216,4.089-.995,2.653-1.879,3.205-1.437,1.768-.663,3.205-.774,3.095L213.2,64,212.1,65.986l-2.21,2.984-.995,2.21-.774,2.21-.442,2.21.774,4.531L210.106,84l1.989,2.653,5.305,6.079,7.958,7.958,4.2,4.089,3.316,2.431,3.316,2.653.774.774.221,1.216-.332,2.542-1.326,1.989-2.984,1.989-.995,2.653-1.105,2.653L229,126.331l.995,2.431,3.205.553,2.874-.221,2.542-.774,1.658-1.547,2.321-.221,2.542.442,2.431-.884,2.652-1.768,3.647-2.431,1.658-2.21.332-1.105-.884-.995-1.216-.111-1.105-.442-.663-.663-.221-.774v-.995l.332-.663.442-1.105.774-.663.553-.663h1.105l1.658.111,1.768.332,1.216-.332.995-.995.442-1.216.884-2.984.442-2.874-.332-2.874-.774-4.752-1.105-3.647-1.437-2.984-.442-2.874L258.182,84l1.105-1.547,1.105-.884,1.216-1.437.884-1.989.553-2.542V72.286l.111-4.31v-2.21l1.216.884,12.489,8.289L288.576,82.9l10.831,7.073,9.284,6.3,13.373,8.842,3.979,2.653,1.658,1.879,1.105,2.431.442,2.1.442,4.642.663,2.1,3.758,6.079,7.294,8.068,3.537,3.758,3.537,3.868,4.531,5.194,3.647,4.2,7.4,8.621,3.647,4.2,3.647,4.2L375,173.3l7.184,8.289,4.863,5.526,2.542,1.105h.111Z" fill="#3e7ef2" stroke="#fff" stroke-linecap="round" stroke-linejoin="round" stroke-width="1"/>
      <path id="UZB357" d="M658.258,374.694v.332l-7.847,3.205-.553,1.326-.774.995.995,11.936.11.442.221.332.332.774.553.663.442.221.884.553,5.747,1.547.332.332.221.332.221.332v1.437L658.921,401v1.437l.11.442.553,1.437,1.437,2.542-1.768,4.531-9.836,19.12-1.216-1.216-.774-.995-.221-.332-.11-.332-.111-.332v-.442l.442-1.326v-.774l-.11-.332-.111-.332L645,421.555l-1.879-1.658-.663-.332-.553-.111-.663.221-4.642,3.205-1.437.663-1.326.221-.995-.221-1.216-.442-1.105-.663-1.326-.995L628.2,421l-.884-.111-.884.221-.774.663-.774.774-.553.995-.553,1.105L623,426.971l-.221,1.326v1.326l.553,1.547.442.663.332.663-.11.663-.442.995-.442.442-1.326.553-.332.553v.663l.774,1.989.221,2.984-.442,1.879-.884,1.879-.11.553.11.553.332.442.884.884v.774l-.332.553-1.658,2.321-.553,1.105-.332,1.105-.553,1.879-1.658,3.979-.11.553.11.553.332.111h.442l1.216-.221h.553l.553.111.553.221.332.553.221.442v.663l-.332.774-.663.663-4.089,3.868-.774.442-13.815,2.874-2.763-.553-2.763-1.768-1.326.442-1.216-.663-1.216-.884-2.653-.995-.995-1.105L587.193,463l-.663-.111-.221-.111-1.216-.221-5.858-2.652h-.995l-.442.221-.332.332-.332.884-.221.553-.11.332.11,1.105-.221,1.658v.442l-.111.442-.221.221-.111.442-1.658,2.431-.111.553.221.332h.442l.442.111.332.221.332.332.111.442-.111.442-.221.663-.995,2.21-.221.553-1.105,4.31-.442.995-.553.332-.774.332h-1.879l-1.768-.221-1.879-.884-2.21-1.216-.442-.111-.442.221-.332.553-.11.553-.221,1.437-.553.442-.553.442-3.868.995-3.095.442-.663.111-.332.221-.332.332-.111.442.442.995,1.989,2.21,1.216,1.105.553.553.553.774,1.879,7.073.11.663-.11,1.216-.11.774-.221.663-1.879,4.31v.442l.774,2.542,3.426,6.852-1.216.774-6.41,1.437-.11-2.321-.111-.553-.663-2.21-.332-.884-.332-.553-.995-1.326-1.105-1.216-.995-.553-1.547-.553-1.216-.663-.553-1.768-.221-1.768V501.13l-.553-1.879-1.105-1.879-7.736-3.647-.553-.995-.995-.111-2.763,1.216h-1.216l-.884-.553-.221-.663-.332-.774-.111-.442-2.984-1.658-1.879-1.216L520,482.01l-.995-2.1.884-2.1,1.105-2.321,2.1-2.652.221-.332.442-.553.553-1.105,3.868-1.768,1.216-.884,1.105-1.105.884-1.216,3.095-6.189.884-.774.663-.111.442-.332.442-.332.442-.111,1.879-.221.11-.221-.332-.553-.995-1.326-1.879-1.879-.663-1.216-.11-.332v-.221l.332-.111.553-.553,1.105-3.095-1.658-1.658-.332-1.658v-.663l.11-.884.221-.774.553-.663,1.105-.663,2.21-.332H541l1.326.332,1.216,1.105,1.437.995,1.437.442,7.515.111.774-1.437,1.437-4.642,1.105-1.105,1.437-1.658,1.768-5.416.111-.995.663-1.105.553-.442.553-.221.663.111,3.316.663.884.111.11-.995-.332-.995-.11-1.768V422l.11-2.21.332-2.1,1.547-5.3-3.095.884L546.3,411.94l-6.41-1.547-2.21-1.326-2.21-1.768-.884-2.542-.553-2.21-1.437-8.621-.553-1.989-.774-.111-1.989,2.984-2.1.884-2.763.553-8.51.332-2.21.884-1.216.663-1.989,7.515-1.437,1.437-17.352-2.1-2.763-.995-.884-1.879-.111-5.526-.332-2.874-1.326-1.989-1.216-1.105-1.216-.332-1.326.442-1.216,1.105-1.105,1.658-3.868,7.958-4.531,6.852-7.736,2.652.111-1.658-2.321-2.321-1.437-2.542-19.341-11.936-9.947-5.637-8.4-3.316L417.1,382.32l-1.547-.884-8.731-15.362L396.1,353.253l-1.658-2.763-1.989-4.752-5.416-.111-22.767,8.621-27.52-37.909-.553-1.216v-1.105l1.326-1.216,13.815-7.847.774-.774.332-.442-1.326-2.763-7.294-13.484-.221-.884v-.995l1.437-18.015,3.537-8.289,16.468-31.72,17.462-33.046.442-1.105v-.884l-.995-.553L364.6,187.251l-3.205-2.984-6.963-11.826,5.3-.995,4.531-.774,8.179-1.547,7.294-1.326,3.647-.663,5.858-.995,5.858-.995,29.288-4.752,5.858-.995,9.836.995,9.726.884,9.836.884,9.726.884,8.952.774,8.842.774,8.952.884,8.842.774,3.537.332,2.21-.663,6.521-3.537,6.189-3.426,6.41-3.647,6.189-3.426,1.216-.442,1.105-.442,2.1.332.995.995,1.105.884,6.963,9.063,6.852,9.063,3.205,3.426,3.205,3.316,6.631,4.2,6.631,4.089,2.542,2.321,5.416,11.273,3.537,7.184,4.752,9.947,4.2,8.51,1.105.111,9.284-4.973,9.173-5.084-1.326,21.773-1.437,21.662-.332,4.642-.553,1.547-1.547.553-.332,1.216-.332,16.91-.221,16.8.221.995.553.442h14.7l7.073.111h7.736l.442-.111.553.111h.442l.332.221,1.105,10.942,1.105,10.831,1.989,10.61,2.1,10.61,2.763,12.71,2.763,12.489,1.437,1.768,1.437,1.768,1.547.442Z" transform="translate(35.266 15.781)" fill="#3e7ef2" stroke="#fff" stroke-linecap="round" stroke-linejoin="round" stroke-width="1"/>
      <path id="UZB358" d="M628.764,404.952l.553.442,8.068.332,2.652.774.995.221,1.105.221,1.437-.111,1.658-.332.442-.111.332.332.332.442.442,1.105.332.774.111.884-.111,1.105-.332,1.216-.553,1.326-.11.442-.11.553v.553l.11,3.979.11,1.437.884,4.421.221.332.221.442.442.442,1.326.553.332.332.221.332v.663l-.221.442v.663l.221.663,1.768,2.1-.111,1.989-.221.774-.221.221-.332.332-1.216.332-.332.221-.111.442-.11.442.332,3.758.221.442.221.332.774.221h.553l.553-.111.332-.111,1.216-.553.332-.111h.884l.442.332.332.553.11,1.105-.221.553v.774l.11.442,2.21,2.431.884-.332h.332l.221-.111.774,1.216,5.084,1.437.774.111.995-.111.442-.111h.442l1.105.663.442.221.553.111.663-.221,1.437.111,11.163,2.1,1.105,1.768,1.658,7.847-.221.663-.995.221H683.8l-1.768.442-1.326.442-2.1,1.105-.995.774-.442.442-.111.442-.221.553V468.5l.11.553.11.442.111.774v1.547l-.111.442-.332.442-.553.221-.553.111h-1.989l-.774.221-.442.774-.221.663-.111,5.747.663,1.437.884,1.105,2.653,2.321,4.863,4.31-.553.774-.774,3.205-.442,3.316-.11,3.095-.774,2.763-.442,2.763-.442.221-.663-.221-.663.221-.111.111-15.362-3.868-3.426-.221v.442l.111.884v.774l-.221.442-.221.332-.332.332-.332.111-.774.221-7.073.221-.884-.11-.442-.221-.442-.221-.442-.332-.221-.442-.111-.663.111-1.326.442-2.21-.221-1.216-1.326-2.431-1.326-.221-5.526-1.105-4.973-.774H632.3l-1.105.332-.995.553-.553.442-.442.442-2.1,3.205-.553.553-4.863,1.989h-.442l-.884-.221-.995-.553-3.868-2.984-1.547-1.105-1.216.111-9.284,2.1-.332.111-6.189,2.984-1.326.884-.995.332h-2.321l-4.31-1.105-.332-.332-.332-.553-.111-.884-.11-.663v-.553l.11-1.326v-1.216l-.221-.553-.221-.442-1.547-1.216-1.989-1.326-3.316-3.316-.663-.884-.442-.663-.111-.442-.663-2.763-.11-.332-.221-.332-.332-.332-.332-.221-.442-.111-.553-.111h-1.989l-.774.111-.553.332-.11.442v2.1l-.111.442-.221.332-.221.332-1.437.995-1.326.774-.774.221-27.409-.663-3.426-6.852-.774-2.542v-.442l1.879-4.31.221-.663.111-.774.11-1.216-.11-.663-1.879-7.073-.553-.774-.553-.553-1.216-1.105-1.989-2.21L532.5,459l.11-.442.332-.332.332-.221.663-.111,3.095-.442,3.868-.995.553-.442.553-.442.221-1.437.11-.553.332-.553.442-.221.442.111,2.21,1.216,1.879.884,1.768.221h1.879l.774-.332.553-.332.442-.995,1.105-4.31.221-.553.995-2.21.221-.663.11-.442-.11-.442-.332-.332-.332-.221-.442-.111h-.442l-.221-.332.11-.553,1.658-2.431.11-.442.221-.221.11-.442v-.442l.221-1.658-.11-1.105.11-.332.221-.553.332-.884.332-.332.442-.221h.995L564.44,437l1.216.221.221.111.663.111,1.658,2.321.995,1.105,2.653.995,1.216.884,1.216.663,1.326-.442,2.763,1.768,2.763.553,13.815-2.874.774-.442,4.089-3.868.663-.663.332-.774v-.663l-.221-.442-.332-.553-.553-.221-.553-.111h-.553l-1.216.221h-.442l-.332-.111-.11-.553.11-.553,1.658-3.979.553-1.879.332-1.105.553-1.105,1.658-2.321.332-.553v-.774l-.884-.884-.332-.442-.111-.553.111-.553.884-1.879.442-1.879-.221-2.984-.774-1.989v-.663l.332-.553,1.326-.553.442-.442.442-.995.11-.663-.332-.663-.442-.663-.553-1.547v-1.326l.221-1.326.774-2.321.553-1.105.553-.995.774-.774.774-.663.884-.221.884.111.995.442,1.326.995,1.105.663,1.216.442.995.221,1.326-.221,1.437-.663,4.642-3.205.663-.221.553.111.663.332L624.343,396l2.21,2.542.11.332.11.332v.774l-.442,1.326v.442l.11.332.11.332.221.332.774.995,1.216,1.216Z" transform="translate(55.919 41.337)" fill="#3e7ef2" stroke="#fff" stroke-linecap="round" stroke-linejoin="round" stroke-width="1"/>
      <path id="UZB361" d="M680.785,497.3l-.442.442-.332.332-.111.553-.11,1.216.442,3.316L682,504.82l7.847,2.763,5.195.221,2.542.995.221.332.553.995.332.332.442.111,1.105-.221.442.11.553.995.11,1.105-.774,6.41.332,2.1h.11l-.995.774-1.105.442-4.642.221-.884.221-.663.332-.442.221-.332.332-.553.442-.332.663-.221.553v.663l.553,1.989.332,2.984,1.547,2.763.11.332.111.442v.553l-.111.442-.11.553v.442l-.11.442v.442l.11.442v.442l.221.332.11.884.11.442v.442l-.221.663-.332.663-.663.995-.332.663-.11.663v1.437l-.111.332-.221.332-.442-.11-.332-.221-1.216-1.216-.221-.221-.332-.221-.442-.221-.995-.221-.995-.111h-.884l-.884.221-.884.442-.553.442-.442.442-.332.332-3.868,7.515-.663.884L677.138,555l-.663.442-.995.553-2.542.663-.442,1.105-.774,1.216-1.105,1.216-2.432,1.989-.332.553-.442,1.105-.332,1.326-.663,4.2-.553,1.989-.11.442-.884.884-7.073,5.747-3.647,1.989-.774.221-2.321.442-.553.332-.553.774-.995,1.658-.663,1.658-.332.884-.332.995-.442.995-.442.884-7.847,7.294-.553.774-.332,1.326-.332,3.205-.332,1.105-.995,1.989-1.989,1.216-.774-2.21-2.1-1.547-2.321-1.216-2.542-.663h-4.863l-1.989-.553-6.521-3.095-2.984-3.758-1.879-1.879-2.1-.884-4.2-1.216-3.979-3.205-1.768-.995-4.31-.663-6.41-3.095-2.21-.221-1.768.774-3.095,2.431-1.658.995-4.421.332-4.31-1.437-10.61-7.184-6.41-4.31-8.621-5.858-6.079-5.637-8.621-7.736-4.31-2.763-9.394-3.316-8.289-4.752-13.484-11.494-3.647-4.752.995-.995,5.858-6.521,2.984-1.989,8.842-3.647,3.426-1.216,10.721-3.868.332-.221.332-.332.111-.663v-.553l-.221-.332-.221-.332-1.989-2.542-.442-.663-.332-.774-.11-.332-.111-.442V500.4l.111-.442.442-.663.553-.884,4.863-5.3.442-.332.442-.221.774-.111.663.111.774-.332.774-.663,6.41-6.41,2.984-2.321,6.41-1.437,1.216-.774,27.409.663.774-.221,1.326-.774,1.437-.995.221-.332.221-.332.11-.442v-2.1l.111-.442.553-.332.774-.111h1.989l.553.111.442.111.332.221.332.332.221.332.111.332.663,2.763.11.442.442.663.663.884,3.316,3.316,1.989,1.326,1.547,1.216.221.442.221.553v1.216l-.11,1.326v.553l.11.663.11.884.332.553.332.332,4.31,1.105h2.321l.995-.332,1.326-.884,6.189-2.984.332-.111,9.284-2.1,1.216-.111,1.547,1.105,3.868,2.984.995.553.884.221h.442l4.863-1.989.553-.553,2.1-3.205.442-.442.553-.442.995-.553,1.105-.332h.884l4.973.774,5.526,1.105,1.326.221,1.326,2.432.221,1.216-.442,2.21-.11,1.326.11.663.221.442.442.332.442.221.442.221.884.111,7.073-.221.774-.221.332-.111.332-.332.221-.332.221-.442v-.774l-.11-.884v-.442l3.426.221,15.362,3.868Z" transform="translate(51.311 49.891)" fill="#3e7ef2" stroke="#fff" stroke-linecap="round" stroke-linejoin="round" stroke-width="1"/>
      <path id="UZB362" d="M621.373,601.8l1.989-1.216.995-1.989.332-1.105.332-3.205.332-1.326.553-.774,7.847-7.294.442-.884.442-.995.332-.995.332-.884.663-1.658.995-1.658.553-.774.553-.332,2.321-.442.774-.221,3.647-1.989,7.073-5.747.884-.884.11-.442.553-1.989.663-4.2.332-1.326.442-1.105.332-.553,2.432-1.989,1.105-1.216.774-1.216.442-1.105,2.542-.663.995-.553.663-.442,1.105-1.216.663-.884,3.868-7.515.332-.332.442-.442.553-.442.884-.442.884-.221h.884l.995.111.995.221.442.221.332.221.221.221,1.216,1.216.332.221.442.11.221-.332.111-.332v-1.437l.11-.663.332-.663.663-.995.332-.663.221-.663v-.442l-.11-.442-.11-.884-.221-.332v-.442l-.111-.442V532.5l.111-.442v-.442l.11-.553.11-.442v-.553l-.11-.442-.11-.332-1.547-2.763-.332-2.984-.553-1.989V520.9l.221-.553.332-.663.553-.442.332-.332.442-.221.663-.332.884-.221,4.642-.221,1.105-.442.995-.774,1.105,1.105,8.179,1.437,1.768-.11,4.863-1.658.884-.442.884-.221h.995l.995.442.553.221.995.995.995.221,1.105-.442,1.105-.774.442-.11h1.105l.553.11.995,1.216,2.1,4.863,1.879,2.763.663,1.658-.11,1.768-.553,1.437-.774,1.105-.995.884-1.105.553-1.547.332H713.99l-.663.442-.221,1.768.11.884.442.663.221.774v.995l-.332.442-1.658,1.216-.442,1.216.111,1.437.884,3.095.11,1.658-.221,4.752.221,1.768.442,1.105,1.547,2.432.442,1.216.11,2.653.221,1.105.553,1.216,2.542,2.431,2.431,4.31,1.105,1.216,3.316,1.879,5.084,4.531,1.547,2.431.221,3.205-.995,4.752-1.547,4.531-2.542,3.868-.774,1.547-.553,1.326-.221,1.326-.553.995-.995.774-.995.221-2.984.442-1.989.663-1.105,1.216-2.763,8.289-1.879,3.758-4.642,6.521-3.537,3.316-3.316,4.2-2.653,4.752-1.879,4.973-.221,3.426,1.326,6.41.221,3.426-.332,2.874-.774,2.763-1.216,2.432-.332,1.105-.221-1.437-.774-1.105-1.105-.663-1.326-.332-2.321.111-.884-.111-.663-.442-1.437-.995-.663-.221-.774.11-1.216.332-.663.11-.442.332-.332.774-.553.774-.663.332-1.105-.995-1.216-3.316-1.437-.774-1.326.442-1.216.884-2.1,2.1-1.216.995-1.326.663-1.437.332-1.547.221-1.658.332-2.432,1.547-1.437.332-1.437-.553-.663-1.216-.552-1.547-.553-1.437-1.326-1.105-2.874-1.105-1.326-.884-.553-1.216-1.105-3.537-.774-.663-1.326-.442-2.542-1.768-1.216-.663h-3.095l-5.857,1.326-8.4.442-.663.221-1.326,1.105-.663.221h-1.768l-.774-.221-4.2-1.768-1.547-.221-1.658.221-1.216.332-1.658-1.216.111-1.437.995-1.437,1.216-1.216.995-1.658-.221-1.326-.995-1.105-1.326-1.105-.884-2.21.332-2.984,1.326-5.416.221-3.205-.442-6.41.221-3.205,2.21-3.979,3.647-4.642,2.321-4.642-.663-1.658Z" transform="translate(64.304 54.257)" fill="#3e7ef2" stroke="#fff" stroke-linecap="round" stroke-linejoin="round" stroke-width="1"/>
      <path id="UZB363" d="M949.456,411.655l-.11-.442-.553-1.989-.11-1.105.221-1.547.221-1.547v-1.547l-.111-.442-.884-.774-3.316-.995-.774-.111-.442-.332-1.216-1.879-.884-.663-.663.553-.663.884-1.105.111-3.868-.774-3.094-.995-1.768.111-1.326.221-1.547-.221-.553-.221-.552-.332-2.542-3.537-.553-.995-.553-.553-.774-.442-3.316-1.105-.995-.111-.774.111-.332.221-.553-.111-.884-.221-1.768-.995h-.663l-.332.332-.111,1.437-.332-.111-.663-.995-1.326-2.653L907.9,385.02l1.879-1.879-.995-2.1-.774-.995-.11-.663.332-.442,2.1-1.989.774-.553.884-1.216,6.631-1.768,2.1.995,2.653-1.216.774-.221h1.437l1.547.111,1.768-.221,8.4,2.1,1.105.111,1.105-.221,3.868-.111.884-.221.442-.221.221-.111.553-.442,1.547-7.073.332-1.437L951,364.131l2.432-.332.442-.442.774-2.21.332-.553,1.216-.995.774.553,1.879,2.874,1.326.884,1.879.553,3.426.332.332.221.11.332v.442l-.11.553v1.989l1.216.553,1.547.111,1.326.553,2.653,4.31,1.989,2.1,2.542,1.105,2.763.332,8.289-.774,2.432.774.332,2.431-.221,1.437.884-.111,2.984-2.1,4.752-2.21.995.663.884,1.326,1.326.884,3.758-.221,1.989.442.332,1.658-1.989,2.653-2.984,1.768-6.079,2.21-5.526,3.426-4.642,1.216-2.21.995-1.547,2.321-.774,5.637-1.879.884-2.321-1.105h-1.216l-.442,1.437-.11,1.216-.332,1.216-.553.995-.995.884-2.542.111-4.531-3.095-2.431-.332-1.879-.995-2.1-2.431-2.21-1.879-1.879.884-.221,1.326,1.437,2.321-.11,1.547-.332,1.437v.884l.553.774,2.763,1.989.663,1.768v1.989l-.774,2.1-1.326,1.768-1.437.332-1.768-.663-3.758-2.21-.995-.332-2.874.111-.884-.332.332-.774.774-.221,1.105-.111.884-.221.332-.884-.663-.553-1.105-.111-.553.111Z" transform="translate(95.415 37.728)" fill="#3e7ef2" stroke="#fff" stroke-linecap="round" stroke-linejoin="round" stroke-width="1"/>
      <path id="UZB364" d="M926.675,456l-.995.221-1.547-.553-1.326-.553-1.326-.995-.663-1.216,1.105-1.326h1.547l1.105-.553,2.321-1.768,1.658-.553.221.884L927.338,455l-.663.995Zm-37.688-11.715.442.111.332-.221.663-.553.442-.221,1.547-.442.884.221.442.774-.442,1.326-2.984,2.1-.995.995.111,2.21,2.873,2.984-.11,2.652-.774.995-.884.332h-2.1l-3.095.884-.884-.111-.774-.774-.11-.884L883.24,456l-1.216-.111-.774.553-.884.884-.884.553-.774-.442-.11-2.1,2.763-4.31-.332-2.542-.774-.553L878.6,447.6l-.884-.442-.663-1.105-1.658-3.426-.332-1.437.11-1.326.332-1.547,1.105-2.542,1.989-1.105,1.437.884,1.105,1.989.884,2.321,1.105,1.437L884.9,442.4l3.537,1.547.221.221ZM915.4,382.611l1.989,2.874,1.326,2.652.663.995.332.111.11-1.437.332-.332h.663l1.768.995.884.221.553.111.332-.221.774-.111.995.111,3.316,1.105.774.442.553.553.553.995,2.542,3.537.553.332.553.221,1.547.221,1.326-.221,1.768-.111,3.095.995,3.868.774,1.105-.111.663-.884.663-.553.884.663,1.216,1.879.442.332.774.111,3.316.995.884.774.11.442v1.547l-.221,1.547-.221,1.547.11,1.105.553,1.989.11.442-2.874.111-1.105.221-4.31,2.431-.553.884-.442,1.547-.884,2.321-1.658,1.768-5.636,2.763-.332,1.216.442,1.326,1.216.774,1.879.884.884.663.332.663-.442.884-.884.221-.995-.111-.774-.332-.442-.111h-.442l-.774.221-2.431-.221-2.542-.553-2.431.111-1.989,1.989-1.105,2.652-.774,1.216-.995.995-3.426,1.989-.884.221-1.326-.553-.332-1.326v-3.426l-.442-1.658-.884-1.879-1.216-.995-1.105.995-.442,1.658-.111,1.437-.553.995-1.547.111-3.095-.553-1.437-.663-1.326-.774-1.216-1.216L907,426.929l-.553-.995-2.873-.884-1.989-1.879-1.326-.111-1.989.221-1.105-.111-.884-.442-.663-.774-.553-.884-.663-.442-.884.221-1.105,1.547-.553,1.879-.884,1.437-1.989.221-7.515-1.105-3.758.663-2.321,2.321-1.326-.111-5.637.553-9.173,2.763-2.763.221-2.653-.111-2.653-1.879-1.105-3.537-.884-3.979-1.658-2.763-1.437-.553-1.216.111-1.216.332-1.437.111-1.326-.332-3.205-1.437.884-2.984-.221-.332-.553-.663-.11-.111-.774-1.216-.11-.221-.11-.442-.111-1.768.995-1.658,1.879-1.216,4.421-.995.663-.332.663-.774,1.547-2.652.884-.884.884-.442.884-.221.995-.442.774-.774,2.321-2.763,3.868-3.205.995-.884.884-.774.553-.221,1.105-.221.221-.332.11-.442.221-.332.995-.663,1.658-.995.663-.884.553-.774.774-.774.995-.553.884-.111,1.768.221.884-.111,2.984-2.763h1.326l.995.442.553.332.442.442,1.989.221,7.294-.332-4.089,5.526.332.442,2.542.221.442.221L887.329,392l.442.221.663.221,1.216.221.663.221,1.326,1.105,2.984,1.658.884.221,1.437-.221,4.2-3.979,1.989-3.205,1.326-.995,5.637-3.095,5.3-1.768Z" transform="translate(87.913 40.138)" fill="#3e7ef2" stroke="#fff" stroke-linecap="round" stroke-linejoin="round" stroke-width="1"/>
      <path id="UZB365" d="M954.594,369.119l-.332,1.437-1.547,7.073-.553.442-.221.111-.442.221-.884.221-3.868.111-1.105.221-1.105-.111-8.4-2.1-1.768.221-1.547-.111h-1.437l-.774.221-2.653,1.216-2.1-.995-6.631,1.768-.884,1.216-.774.553-2.1,1.989-.332.442.111.663.774.995.995,2.1-1.879,1.879-5.3,1.768-5.637,3.095-1.326.995-1.989,3.205-4.2,3.979-1.437.221-.884-.221-2.984-1.658-1.326-1.105-.663-.221-1.216-.221-.663-.221-.442-.221-1.879-1.989-.442-.221-2.542-.221-.332-.442,4.089-5.526-7.294.332-1.989-.221-.442-.442-.553-.332-.995-.442h-1.326l-2.984,2.763-.884.111-1.768-.221-.884.111-.995.553-.774.774-.553.774-.663.884-1.658.995.11-.663.553-2.874-2.431-1.437-5.858-1.437-.995-1.216-.221-1.547.663-.995,1.216-.221,2.21,1.989,1.326.442.11-1.547-.553-.774-11.715-13.263-1.989-1.768L844.4,370l-.11-.332-1.326-1.326.553-1.989-.221-6.3-.221-1.879-1.326-2.21-1.326-1.768-.332-.663-.221-.553v-.663l.111-.442,1.216-2.652.221-.553.332-1.105-.221-.774-1.768-.221-.221-.332-.221-.442-.11-1.326-.11-.995.11-.553.11-.553,3.205-4.2.553-.995.774-2.1h.442l2.1-.774,7.958-4.531,2.1-.332,1.216.774,1.105,1.437,3.647,6.189.553,1.768.111,1.768-.884,5.3.11,1.437.774,1.216.995-.111,1.326-.663,1.437-.111,1.216.553,1.105.774,1.105,1.105.884,1.216,1.105,1.105,1.326.111,2.763-.332,3.095.553,1.437.663,1.326.995,1.105.663,2.431.332.995.884,1.658,2.652.995.774.663-1.658-.111-1.768-.332-1.547.11-1.216,1.326-.774,1.547.221.774.995.774,3.205.553,1.216.884.884.884-.111.663-1.658,1.547-1.989,4.421,3.758,1.437-1.216.332-2.984-.553-14.7.442-1.105.884.221,3.095,2.874,2.763,1.216,2.21-.442,1.768-1.879,2.1-4.642.884-2.874.332-1.658-.221-1.547-1.879-2.431-.663-1.437,1.326-3.205.774-.995,1.437-.553,1.437.221.774,1.105.332,1.658v1.768l-1.216,4.863.11.995.553.221.442-.663.221-.884.332-.553.663.332.332,1.326.663.332.442-.442.11-1.879.442-.332.442.221.553.442,6.079,9.063.995,2.542.332,2.874-.11,3.537.332,3.647,1.658.774,5.084-.884,1.547,1.326.995,1.437,1.105.553,1.879-1.105,1.437-1.326,1.547-.884,1.547-.332,1.658.995.663,1.658.332,2.321.11,2.431.553,4.421v1.658l-.442,1.547-.884,2.1Zm-99.69,4.642-.774-2.1-.884-1.437L851.7,368.9l-1.768-.774-.995.221.663,1.768,1.216,1.216,1.879,2.542,1.105.995,1.216.332-.11-1.437Z" transform="translate(88.176 33.846)" fill="#3e7ef2" stroke="#fff" stroke-linecap="round" stroke-linejoin="round" stroke-width="1"/>
      <path id="UZB370" d="M725.4,395.456l-.221,3.426-.774.884-3.537.663-.884.111-.332.221-.332.221-.111.442-.11,1.989-.442,3.205.221.442.332.332.995-.221,1.216-.332h.553l.221.995L714.569,425.3l-.221,1.216-.221,1.326.332,2.321.221.663.332.663.332.221,1.768.332,14.589.332,19.231-4.752h.221l.11.111-.332.663-.332.442-.221.442-.332.553-.884,3.205-.221.553-.221.774.774,1.437v.111l-2.542.663-1.326.995,1.658,1.768,2.874,1.879,2.21.884.663-.111-2.763,3.647-.995,1.768-.332.884V449.5l.111.442.221.774.442.884.442,1.547.221.774.111.442v.774l-.111,2.763-.221.442h-.332l-.111-.332-.332-.332-.332-.111-.332-.111-.553.332-.11.332.221.332.221.332,1.216.663.332.332.111.332-.111.442-.11.553-.332.774-.11,1.326-.111.774h-.221l-.663-.111-.663,1.879-.663,13.484-.332,1.989-.884,1.658-1.547,1.547-2.763,1.768-.884,1.216.774,1.658-1.326.553-3.979,1.105-3.095.221-3.205-.221-5.194-1.879-9.615-.221-21.994-5.747-2.984-.111-2.431.774-5.968,4.31-5.084.774-1.326,1.326.442,3.647-.221.332-.221.221-.332.111-.332.111-1.658-.221-.995.111-4.863-4.31L664.5,487.63l-.884-1.105-.663-1.437.11-5.747.221-.663.442-.774.774-.221h1.989l.553-.111.553-.221.332-.442.11-.442V474.92l-.11-.774-.111-.442-.11-.553v-1.989l.221-.553.11-.442.442-.442.995-.774,2.1-1.105,1.326-.442,1.768-.442h.442l.995-.221.221-.663-1.658-7.847-1.105-1.768-11.163-2.1-1.437-.111-.663.221-.553-.111-.442-.221-1.105-.663h-.442l-.442.111-.995.111-.774-.111-5.084-1.437-.774-1.216-.221.111h-.332l-.884.332-2.21-2.431-.11-.442v-.774l.221-.553-.111-1.105-.332-.553-.442-.332h-.884l-.332.111-1.216.553-.332.111-.553.111H641.4l-.774-.221-.221-.332-.221-.442-.331-3.758.11-.442.11-.442.332-.221,1.216-.332.332-.332.221-.221.221-.774.11-1.989-1.768-2.1-.221-.663v-.663l.221-.442v-.663l-.221-.332-.332-.332-1.326-.553-.442-.442-.221-.442-.221-.332-.884-4.421-.11-1.437-.11-3.979v-.553l.11-.553.11-.442.553-1.326.332-1.216.111-1.105-.111-.884-.332-.774-.442-1.105-.332-.442-.332-.332-.442.111-1.658.332-1.437.111-1.105-.221-.995-.221-2.653-.774-8.068-.332-.553-.442,9.836-19.12,1.768-4.531-1.437-2.542-.553-1.437-.111-.442v-1.437l.221-1.547v-1.437l-.221-.332-.221-.332-.332-.332-5.747-1.547-.884-.553-.442-.221-.553-.663-.332-.774-.221-.332-.11-.442-.995-11.936.774-.995.553-1.326,7.847-3.205v-.332l3.647.995,7.515-.442,6.3-.442,16.136-.995,8.289-.442,13.484-.884,8.179-.442,1.547.442,2.653,1.437,1.437.442,1.216-.221,1.879-1.216,1.879-1.216,1.547-1.105.442,1.326.332,1.105.221.221.442.884,1.437,1.879,1.437,1.879.663,1.547.221,1.658.221,1.547.442.774.442.663.774-.663.774-.332.774.111.774.884.884-1.879,1.326-.111.221,1.768v.221l-.111.774.663.221.11.111-1.437,1.105-.553.332.553.221.221.442.553.995v2.431l-.332,1.437-.332,1.437-.442,1.326-.442,1.437-.995,2.21-.774,1.105-.884,1.105-1.105.774-2.21,1.105-.663.442-.11.663.332.332,2.542.553,1.989,1.105,5.858,5.858,2.21,1.658,2.1,1.768,2.652,1.326Z" transform="translate(65.051 36.687)" fill="#3e7ef2" stroke="#fff" stroke-linecap="round" stroke-linejoin="round" stroke-width="1"/>
      <path id="UZB371" d="M740.356,461.959l.11-.774.111-1.326.332-.774.11-.553.111-.442-.111-.332-.332-.332-1.216-.663-.221-.332-.221-.332.111-.332.553-.332.332.111.332.111.332.332.11.332h.332l.221-.442.111-2.763v-.774l-.111-.442-.221-.774-.442-1.547-.442-.884-.221-.774-.111-.442v-1.216l.332-.884.995-1.768L744,439.965l15.031-2.984,2.984,2.1.442,1.216.111,1.326v1.216l-.553.995-1.437.221-4.752-.663-1.216.332-2.321,1.989-.884.332-1.437-2.652-.995-.774-.774,1.547.11.774,1.105.884.221.663-.111,1.658.111.774.332.884,5.637,7.847.221,1.879-2.763,1.105-1.437-2.321-.995-3.537-1.326-2.874-1.326-.995-.442.663.221,1.547.663,1.879,1.437,2.984-.11,1.216-.774,1.658-.221.111-.663.111-.221.111-.442,1.326v.553l-.111.774-.442.553-.884-.442-1.658-2.763-1.105-.884-2.21,1.989-.663-.332Zm27.851-30.835-2.1-1.105-1.437-.221-10.389,1.658-1.326.553-2.21,1.216-1.547.221-3.647-.663-1.437.111-3.647.995v-.111l-.774-1.437.221-.774.221-.553.884-3.205.332-.553.221-.442.332-.442.332-.663-.11-.111H741.9l-19.231,4.752-14.589-.332-1.768-.332-.332-.221-.332-.663-.221-.663-.332-2.321.221-1.326.221-1.216,7.626-17.462-.221-.995h-.553l-1.216.332-.995.221-.332-.332-.221-.442.442-3.205.11-1.989.111-.442.332-.221.332-.221.884-.111,3.537-.663.774-.884.221-3.426,4.973,2.652,7.515,3.979.221-.442.774-.774h.995l.442-.553.442-.774.553-.332.774.111,2.542,1.216,1.658.332,1.437-.884.332-1.105-1.216-.663,1.547-2.542.11-.553-.553-.995-.332-.995-.332-1.105.11-1.105-1.658-.332-.553-.332-.553-.663-.442-1.658-.332-3.537-.332-3.537.111-.663.11-.663.442-.442.332-.332.442-.884.111-.884-.221-1.879.11-.884.221.111.663.221.221.221.774-1.989,1.768-1.216,1.326-.663,3.316,2.984.442.774.221.884.11,1.989.221.663.332.221.553-.442h.221l.221.553.221,1.437.995-.442,1.437.332,1.437.553.995.774.553.774.663,1.437.553.553.442.332,1.658.884.774.553.332.442.663,1.437v.332l-.11.995.11.442.442.332.442.111.442-.111.442.111.884.884.663.995.221,1.105-.884,1.105.995.663.884-.332.884-.553.995-.332.663.332-.332.884-.995,1.658,2.763-.442,1.105.111.774,2.1,1.216.995.332.774-.332.663-.995.995v.663l.442.332.663-.442.663-.774.663-.332.553.332.442.553v.553l-1.658.774-.553,1.216-.774,2.984.774-.111.663.111.663.221.553.442-1.216.663.111.663.663.663.442.553.11.663.221.774.11.774-.221.663-.995,1.216-.332.663-.332.774-.221.663-1.326,7.736.884,2.321.442.663.11,1.216-.884,3.316-.332,1.216Z" transform="translate(74.078 38.707)" fill="#3e7ef2" stroke="#fff" stroke-linecap="round" stroke-linejoin="round" stroke-width="1"/>
      <path id="UZB372" d="M854.542,341.17l-.774,2.1-.553.995-3.205,4.2-.111.553-.11.553.11.995.111,1.326.221.442.221.332,1.768.221.221.774-.332,1.105-.221.553-1.216,2.652-.11.442v.663l.221.553.332.663,1.326,1.768,1.326,2.21.221,1.879.221,6.3-.553,1.989-.774-.884-2.874-1.216-2.431.663-1.768,8.952-3.537,4.2-4.642,2.874L831,391.678l-6.079,4.642L813.1,400.078l-1.437.663-1.326,1.105-2.653,3.426-1.547,1.326-1.658.553-1.989-.663-.884-.774-.663-.884-1.105-1.989-.774-.884-1.547-1.105-.774-.663L794.2,396.32l-1.437-1.437-2.1-.221-.995-.553-.774-.884-.884-.663-1.105-.111-2.1.663-.995.553-.995.774-1.547,2.1-.995,2.21-.442,2.542-.11,3.095.442,4.531-.221,1.105-.995.553-3.868.332-2.321,1.658v1.768l2.542,4.31h.11l1.326,4.752.663,1.547,1.658,2.984.663,1.658.442,1.879-.553,4.089-1.989.332L775.077,435l-1.658.221.332,2.431,4.642,4.2v1.989l-2.431,1.105-3.205-.111-5.747-1.658-2.21-1.105.332-1.216.884-3.316-.11-1.216-.442-.663-.884-2.321,1.326-7.736.221-.663.332-.774.332-.663.995-1.216.221-.663-.111-.774-.221-.774-.111-.663-.442-.553-.663-.663-.111-.663,1.216-.663-.553-.442-.663-.221-.663-.111-.774.111.774-2.984.553-1.216,1.658-.774v-.553l-.442-.553-.553-.332-.663.332-.663.774-.663.442-.442-.332v-.663l.995-.995.332-.663-.332-.774-1.216-.995-.774-2.1-1.105-.111-2.763.442.995-1.658.332-.884-.663-.332-.995.332-.884.553-.884.332-.995-.663.884-1.105-.221-1.105-.663-.995-.884-.884-.442-.111-.442.111-.442-.111-.442-.332-.111-.442.111-.995v-.332l-.663-1.437-.332-.442-.774-.553-1.658-.884-.442-.332-.553-.553-.663-1.437-.553-.774-.995-.774-1.437-.553-1.437-.332-.995.442-.221-1.437-.221-.553h-.221l-.553.442-.332-.221-.221-.663-.111-1.989-.221-.884-.442-.774-3.316-2.984,2.542-1.105,1.326-1.547,1.216-3.426,1.216-3.426.774-.995.995-.995,2.21-.995,2.1-.995,1.658-2.763.442-.553.332-.553,1.326-.442,2.763-.332,1.216-.553,1.105-.553,1.105-.774,1.105-.774,1.105-1.105.553-.995.442-4.089.553-3.979-.11-1.437-.111-.995-.221-.332-.332-.221-.553-.774-.221-.663.332-.663.553-.442,2.984-1.437,1.216-.332,1.105.442.663-1.768,1.658-1.547,1.658-1.105,1.768-1.105,1.105-.332,1.879.774.884-.111,2.542-1.658.884-.221,1.989.332,1.879.332.774-.442-.11-.884-1.105-1.989-.221-.884.442-1.105.442-1.105,1.658-1.326,3.647-1.105,3.316-2.652,3.205-2.542.995-1.105.884-.995,1.105-.884,4.31-1.216,4.31-1.216,3.647-.111,3.537-.221,2.653-1.105,1.989-2.321.884-1.326.995-.774,1.768-.663,1.768-.663,5.416-3.979.774-.995.774-.884,2.21-3.868,2.21-3.758.884-.995,1.105-.553,1.216-.442.995-.553.884-.884.221-.774.221-.774,1.547-3.537,1.437-1.216,1.326-1.216,6.3-2.652.884.111,1.216.884.995,1.105.553,1.216.442,1.547.995.995,1.326.553,1.547.221.995-.442.995-.442,1.326-2.542.663-1.658.553-1.547,1.437-2.874.995-.995.884-1.105.663-1.216.553-1.547.884-1.326H873l2.984.774,2.431-.332,1.216-.553,1.216-.663,4.31-3.537,1.437-1.326,2.763-2.21,2.1-.221,1.989.884,9.063,6.41,2.21.774-.884,3.316-2.432,1.658-5.3,1.547-9.063,6.742-2.653.663-3.205-.111-2.542.663-1.216,3.205-.111,4.973-.774,1.437-2.21.884-6.41.663-1.989,1.216-6.3,5.416-2.763,3.316-1.879,4.089-1.547,2.321-1.989,1.216-2.1,1.105-3.758,2.984L835.2,326.36l-1.437,2.21,1.216,2.763,2.321,1.216,9.063.995.111.111,2.321,1.437,1.105.995.995,1.216,1.547,2.984.995.884h1.105Zm-71.176,9.173-.663-.774.553-.774-.663-.995-.884-.553.995-1.658-.332-1.437-2.321-1.547-1.989-.221-1.547-1.105-2.1.111-3.426,3.426-.553,2.652-1.658,4.2.221.111,1.105-.553.111.995.442.995,1.547,1.768,1.105-.995v.332l-.332.774.774,1.437,1.879.553,2.1-2.542,3.205-2.984,2.431-1.216Z" transform="translate(77.487 27.754)" fill="#3e7ef2" stroke="#fff" stroke-linecap="round" stroke-linejoin="round" stroke-width="1"/>
      <path id="UZB4828" d="M780.389,343.063l-2.431,1.216-3.205,2.984-2.1,2.542-1.879-.553L770,347.815l.332-.774v-.332l-1.105.995-1.547-1.768-.442-.995-.11-.995-1.105.553-.221-.111,1.658-4.2.553-2.652,3.426-3.426,2.1-.111,1.547,1.105,1.989.221,2.321,1.547.332,1.437-.995,1.658.884.553.663.995-.553.774.663.774Z" transform="translate(80.464 35.035)" fill="#3e7ef2" stroke="#fff" stroke-linecap="round" stroke-linejoin="round" stroke-width="1"/>
      <circle id="_0" data-name="0" transform="translate(744.143 691.756)" fill="#3e7ef2" stroke="#fff" stroke-linecap="round" stroke-linejoin="round" stroke-width="1"/>
      <circle id="_1" data-name="1" transform="translate(704.577 559.131)" fill="#3e7ef2" stroke="#fff" stroke-linecap="round" stroke-linejoin="round" stroke-width="1"/>
      <circle id="_2" data-name="2" transform="translate(702.808 551.284)" fill="#3e7ef2" stroke="#fff" stroke-linecap="round" stroke-linejoin="round" stroke-width="1"/>
    </g>
    <g id="Group_659" data-name="Group 659" transform="translate(-452.569 -1872.865)">
      <g id="map_uzb" data-name="map uzb" transform="matrix(0.996, -0.087, 0.087, 0.996, 427.569, 1900.928)">
        <path id="Path_1718" data-name="Path 1718" d="M0,0" transform="translate(585.783 415.335)"/>
      </g>
      <path id="Icon_material-location-on" data-name="Icon material-location-on" d="M13.193,3A5.689,5.689,0,0,0,7.5,8.693c0,4.27,5.693,10.572,5.693,10.572s5.693-6.3,5.693-10.572A5.689,5.689,0,0,0,13.193,3Zm0,7.726a2.033,2.033,0,1,1,2.033-2.033A2.034,2.034,0,0,1,13.193,10.726Z" transform="translate(599.621 2054.4)" fill="#fff"/>
      <path id="Icon_material-location-on-2" data-name="Icon material-location-on" d="M13.193,3A5.689,5.689,0,0,0,7.5,8.693c0,4.27,5.693,10.572,5.693,10.572s5.693-6.3,5.693-10.572A5.689,5.689,0,0,0,13.193,3Zm0,7.726a2.033,2.033,0,1,1,2.033-2.033A2.034,2.034,0,0,1,13.193,10.726Z" transform="translate(946.919 2157.324)" fill="#fff"/>
      <path id="Icon_material-location-on-3" data-name="Icon material-location-on" d="M13.193,3A5.689,5.689,0,0,0,7.5,8.693c0,4.27,5.693,10.572,5.693,10.572s5.693-6.3,5.693-10.572A5.689,5.689,0,0,0,13.193,3Zm0,7.726a2.033,2.033,0,1,1,2.033-2.033A2.034,2.034,0,0,1,13.193,10.726Z" transform="translate(940.434 2343.13)" fill="#fff"/>
      <path id="Icon_material-location-on-4" data-name="Icon material-location-on" d="M13.193,3A5.689,5.689,0,0,0,7.5,8.693c0,4.27,5.693,10.572,5.693,10.572s5.693-6.3,5.693-10.572A5.689,5.689,0,0,0,13.193,3Zm0,7.726a2.033,2.033,0,1,1,2.033-2.033A2.034,2.034,0,0,1,13.193,10.726Z" transform="translate(1101.734 2372.926)" fill="#fff"/>
      <path id="Icon_material-location-on-5" data-name="Icon material-location-on" d="M13.193,3A5.689,5.689,0,0,0,7.5,8.693c0,4.27,5.693,10.572,5.693,10.572s5.693-6.3,5.693-10.572A5.689,5.689,0,0,0,13.193,3Zm0,7.726a2.033,2.033,0,1,1,2.033-2.033A2.034,2.034,0,0,1,13.193,10.726Z" transform="translate(1174.983 2329.087)" fill="#fff"/>
      <path id="Icon_material-location-on-6" data-name="Icon material-location-on" d="M13.193,3A5.689,5.689,0,0,0,7.5,8.693c0,4.27,5.693,10.572,5.693,10.572s5.693-6.3,5.693-10.572A5.689,5.689,0,0,0,13.193,3Zm0,7.726a2.033,2.033,0,1,1,2.033-2.033A2.034,2.034,0,0,1,13.193,10.726Z" transform="translate(1075.543 2459.8)" fill="#fff"/>
      <path id="Icon_material-location-on-7" data-name="Icon material-location-on" d="M13.193,3A5.689,5.689,0,0,0,7.5,8.693c0,4.27,5.693,10.572,5.693,10.572s5.693-6.3,5.693-10.572A5.689,5.689,0,0,0,13.193,3Zm0,7.726a2.033,2.033,0,1,1,2.033-2.033A2.034,2.034,0,0,1,13.193,10.726Z" transform="translate(1173.902 2529.894)" fill="#fff"/>
      <path id="Icon_material-location-on-8" data-name="Icon material-location-on" d="M11.088,3A3.586,3.586,0,0,0,7.5,6.588c0,2.691,3.588,6.664,3.588,6.664s3.588-3.973,3.588-6.664A3.586,3.586,0,0,0,11.088,3Zm0,4.87A1.281,1.281,0,1,1,12.37,6.588,1.282,1.282,0,0,1,11.088,7.87Z" transform="translate(1277.852 2310.086)" fill="#fff"/>
      <path id="Icon_material-location-on-9" data-name="Icon material-location-on" d="M11.836,3A4.333,4.333,0,0,0,7.5,7.336c0,3.252,4.336,8.053,4.336,8.053s4.336-4.8,4.336-8.053A4.333,4.333,0,0,0,11.836,3Zm0,5.885a1.549,1.549,0,1,1,1.549-1.549A1.549,1.549,0,0,1,11.836,8.885Z" transform="translate(1337.39 2274.85)" fill="#fff"/>
      <path id="Icon_material-location-on-10" data-name="Icon material-location-on" d="M9.888,3A2.386,2.386,0,0,0,7.5,5.388c0,1.791,2.388,4.434,2.388,4.434s2.388-2.643,2.388-4.434A2.386,2.386,0,0,0,9.888,3Zm0,3.24a.853.853,0,1,1,.853-.853A.853.853,0,0,1,9.888,6.24Z" transform="translate(1294.912 2242.789)" fill="#fff"/>
      <path id="Icon_material-location-on-11" data-name="Icon material-location-on" d="M10.869,3A3.367,3.367,0,0,0,7.5,6.369c0,2.527,3.369,6.257,3.369,6.257s3.369-3.73,3.369-6.257A3.367,3.367,0,0,0,10.869,3Zm0,4.573a1.2,1.2,0,1,1,1.2-1.2A1.2,1.2,0,0,1,10.869,7.573Z" transform="translate(1419.402 2282.713)" fill="#fff"/>
      <path id="Icon_material-location-on-12" data-name="Icon material-location-on" d="M11.264,3A3.761,3.761,0,0,0,7.5,6.764c0,2.823,3.764,6.99,3.764,6.99s3.764-4.167,3.764-6.99A3.761,3.761,0,0,0,11.264,3Zm0,5.108a1.344,1.344,0,1,1,1.344-1.344A1.345,1.345,0,0,1,11.264,8.108Z" transform="translate(1414.599 2317.799)" fill="#fff"/>
      <path id="Icon_material-location-on-13" data-name="Icon material-location-on" d="M10.811,3A3.309,3.309,0,0,0,7.5,6.311c0,2.483,3.311,6.149,3.311,6.149s3.311-3.666,3.311-6.149A3.309,3.309,0,0,0,10.811,3Zm0,4.494a1.183,1.183,0,1,1,1.183-1.183A1.183,1.183,0,0,1,10.811,7.494Z" transform="translate(1487.195 2299.001)" fill="#fff"/>
      <text id="Республика_Каракалпакстан_" data-name="Республика
Каракалпакстан " transform="translate(610.569 2021.461)" fill="#fff" font-size="17" font-family="Mont-Regular, Mont"><tspan x="-52.462" y="0">Республика</tspan><tspan x="-77.222" y="23">Каракалпакстан </tspan></text>
      <text id="Навоийская_область" data-name="Навоийская
область" transform="translate(958.993 2128.778)" fill="#fff" font-size="16" font-family="Mont-Regular, Mont"><tspan x="-50.312" y="0">Навоийская</tspan><tspan x="-34.256" y="22">область</tspan></text>
      <text id="Бухарская_область" data-name="Бухарская
область" transform="translate(950.243 2313.659)" fill="#fff" font-size="14" font-family="Mont-Regular, Mont"><tspan x="-38.283" y="0">Бухарская</tspan><tspan x="-29.974" y="19">область</tspan></text>
      <text id="Самаркандская_область" data-name="Самаркандская
область" transform="translate(1110.475 2343.62)" fill="#fff" font-size="12" font-family="Mont-Regular, Mont"><tspan x="-51.324" y="0">Самаркандская</tspan><tspan x="-25.692" y="17">область</tspan></text>
      <text id="Джизакская_область" data-name="Джизакская
область" transform="translate(1185.027 2305.265)" fill="#fff" font-size="11" font-family="Mont-Regular, Mont"><tspan x="-34.606" y="0">Джизакская</tspan><tspan x="-23.551" y="15">область</tspan></text>
      <text id="Кашкадарьиская_область" data-name="Кашкадарьиская
область" transform="translate(1088.036 2433.649)" fill="#fff" font-size="13" font-family="Mont-Regular, Mont"><tspan x="-58.11" y="0">Кашкадарьиская</tspan><tspan x="-27.833" y="18">область</tspan></text>
      <text id="Сурхандарьинская_область" data-name="Сурхандарьинская
область" transform="translate(1182.308 2506.037)" fill="#fff" font-size="11" font-family="Mont-Regular, Mont"><tspan x="-55.369" y="0">Сурхандарьинская</tspan><tspan x="-23.551" y="15">область</tspan></text>
      <text id="Сырдарьинская_область" data-name="Сырдарьинская
область" transform="translate(1286.279 2297.39)" fill="#fff" font-size="6" font-family="Mont-Regular, Mont"><tspan x="-25.281" y="0">Сырдарьинская</tspan><tspan x="-12.846" y="8">область</tspan></text>
      <text id="Ташкентская_область" data-name="Ташкентская
область" transform="translate(1342.974 2265.303)" fill="#fff" font-size="7" font-family="Mont-Regular, Mont"><tspan x="-23.506" y="0">Ташкентская</tspan><tspan x="-14.987" y="10">область</tspan></text>
      <text id="Ташкент" transform="translate(1318.569 2242.058)" fill="#fff" font-size="6" font-family="Mont-Regular, Mont"><tspan x="-12.99" y="0">Ташкент</tspan></text>
      <text id="Наманганская_область" data-name="Наманганская
область" transform="translate(1428.782 2270.625)" fill="#fff" font-size="7" font-family="Mont-Regular, Mont"><tspan x="-26.901" y="0">Наманганская</tspan><tspan x="-14.987" y="10">область</tspan></text>
      <text id="Ферганская_область" data-name="Ферганская
область" transform="translate(1423.782 2308.273)" fill="#fff" font-size="7" font-family="Mont-Regular, Mont"><tspan x="-22.204" y="0">Ферганская</tspan><tspan x="-14.987" y="10">область</tspan></text>
      <text id="Андианская_область" data-name="Андианская
область" transform="translate(1495.926 2287.909)" fill="#fff" font-size="7" font-family="Mont-Regular, Mont"><tspan x="-22.12" y="0">Андианская</tspan><tspan x="-14.987" y="10">область</tspan></text>
      <path id="Icon_material-location-on-14" data-name="Icon material-location-on" d="M13.193,3A5.689,5.689,0,0,0,7.5,8.693c0,4.27,5.693,10.572,5.693,10.572s5.693-6.3,5.693-10.572A5.689,5.689,0,0,0,13.193,3Zm0,7.726a2.033,2.033,0,1,1,2.033-2.033A2.034,2.034,0,0,1,13.193,10.726Z" transform="translate(754.141 2226.542)" fill="#fff"/>
      <text id="Хорезмская_область" data-name="Хорезмская
область" transform="translate(766.713 2199.237)" fill="#fff" font-size="14" font-family="Mont-Regular, Mont"><tspan x="-43.659" y="0">Хорезмская</tspan><tspan x="-29.974" y="19">область</tspan></text>
    </g>
  </g>
</svg>
