<?xml version="1.0" encoding="UTF-8"?>
<!DOCTYPE svg PUBLIC "-//W3C//DTD SVG 1.1//EN" "http://www.w3.org/Graphics/SVG/1.1/DTD/svg11.dtd">
<!-- Creator: CorelDRAW 2020 (64-Bit) -->
<svg xmlns="http://www.w3.org/2000/svg" xml:space="preserve" width="152.108mm" height="210mm" version="1.1" style="shape-rendering:geometricPrecision; text-rendering:geometricPrecision; image-rendering:optimizeQuality; fill-rule:evenodd; clip-rule:evenodd"
viewBox="0 0 16812 23210"
 xmlns:xlink="http://www.w3.org/1999/xlink"
 xmlns:xodm="http://www.corel.com/coreldraw/odm/2003">
 <defs>
  <style type="text/css">
   <![CDATA[
    .fil0 {fill:#FFED00;fill-rule:nonzero}
   ]]>
  </style>
 </defs>
 <g id="Слой_x0020_1">
  <metadata id="CorelCorpID_0Corel-Layer"/>
  <g id="_2946027934432">
   <g>
    <g>
     <path class="fil0" d="M8406 0c-4635,0 -8406,3771 -8406,8406 0,5752 7522,14197 7843,14553 301,335 826,334 1126,0 320,-357 7843,-8801 7843,-14553 0,-4635 -3771,-8406 -8406,-8406zm0 21294c-2532,-3007 -6892,-8940 -6892,-12888 0,-3800 3092,-6892 6892,-6892 3800,0 6892,3092 6892,6892 0,3948 -4360,9880 -6892,12888z"/>
    </g>
   </g>
   <g>
    <g>
     <path class="fil0" d="M8406 4177c-2332,0 -4229,1897 -4229,4229 0,2332 1897,4229 4229,4229 2332,0 4229,-1897 4229,-4229 0,-2332 -1897,-4229 -4229,-4229zm0 6945c-1497,0 -2715,-1218 -2715,-2715 0,-1497 1218,-2715 2715,-2715 1497,0 2715,1218 2715,2715 0,1497 -1218,2715 -2715,2715z"/>
    </g>
   </g>
   <g>
   </g>
   <g>
   </g>
   <g>
   </g>
   <g>
   </g>
   <g>
   </g>
   <g>
   </g>
   <g>
   </g>
   <g>
   </g>
   <g>
   </g>
   <g>
   </g>
   <g>
   </g>
   <g>
   </g>
   <g>
   </g>
   <g>
   </g>
   <g>
   </g>
  </g>
 </g>
</svg>
