<?xml version="1.0" encoding="UTF-8"?>
<!DOCTYPE svg PUBLIC "-//W3C//DTD SVG 1.1//EN" "http://www.w3.org/Graphics/SVG/1.1/DTD/svg11.dtd">
<!-- Creator: CorelDRAW 2020 (64-Bit) -->
<svg xmlns="http://www.w3.org/2000/svg" xml:space="preserve" width="210mm" height="297mm" version="1.1" style="shape-rendering:geometricPrecision; text-rendering:geometricPrecision; image-rendering:optimizeQuality; fill-rule:evenodd; clip-rule:evenodd"
viewBox="0 0 21000 29700"
 xmlns:xlink="http://www.w3.org/1999/xlink"
 xmlns:xodm="http://www.corel.com/coreldraw/odm/2003"
 enable-background="new 0 0 512 512">
 <defs>
  <style type="text/css">
   <![CDATA[
    .fil0 {fill:#FFED00;fill-rule:nonzero}
   ]]>
  </style>
 </defs>
 <g id="Слой_x0020_1">
  <metadata id="CorelCorpID_0Corel-Layer"/>
  <g id="_2095442592544">
   <g>
    <path class="fil0" d="M6367 14656c1872,0 3395,-1523 3395,-3395 0,-1872 -1523,-3395 -3395,-3395 -1872,0 -3395,1523 -3395,3395 0,1872 1523,3395 3395,3395zm0 -6201c1547,0 2806,1259 2806,2806 0,1547 -1259,2806 -2806,2806 -1547,0 -2806,-1259 -2806,-2806 0,-1547 1259,-2806 2806,-2806z"/>
    <path class="fil0" d="M4612 12285c-127,743 652,1308 1314,958l441 -233 441 233c664,351 1441,-215 1314,-958l-85 -496 358 -351c537,-526 239,-1441 -502,-1550l-493 -72 -221 -450c-332,-676 -1293,-676 -1625,0l-221 450 -493 72c-741,108 -1039,1023 -502,1550l358 351 -85 496zm314 -1814l647 -94c96,-14 179,-75 222,-162l289 -589c117,-237 451,-237 567,0l289 589c43,87 126,148 222,162l647 95 0 0c261,38 364,361 175,547l-468 459c-69,68 -100,165 -84,260l110 648c45,263 -227,461 -459,338l-578 -306c-86,-46 -189,-46 -275,0l-578 306c-232,123 -504,-75 -459,-338l110 -648c16,-95 -15,-192 -84,-260l-468 -459c-190,-186 -85,-509 175,-547l0 0z"/>
    <path class="fil0" d="M19743 15306c-61,-681 -224,-1148 -496,-1420 -441,-441 -1247,-771 -2287,-941l0 -597c0,-507 -333,-955 -801,-1115 -431,-1620 -1450,-2103 -3192,-2224 -162,-11 -303,111 -314,273 -11,162 111,303 273,314 1816,127 2320,679 2617,1626 -206,92 -349,298 -349,537l0 2159c0,325 264,589 589,589 578,0 1059,-418 1158,-967 871,151 1550,424 1890,764 93,93 247,337 316,952l-384 0c-224,0 -429,97 -571,256 -344,-164 -729,-256 -1135,-256 -1361,0 -2486,1032 -2632,2355l-2361 0 0 -8319c0,-2 0,-4 0,-6 0,-2 0,-4 0,-5l0 -1326c0,-703 -572,-1276 -1276,-1276l-8840 0c-703,0 -1276,572 -1276,1276l0 5914c0,163 132,294 294,294 163,0 294,-132 294,-294l0 -5914c0,-379 308,-687 687,-687l8840 0c379,0 687,308 687,687l0 9656 -3108 0c-71,-629 -366,-1219 -835,-1652 -481,-444 -1117,-703 -1797,-703 -1361,0 -2486,1032 -2632,2355l-329 0 0 -1197c0,-422 -343,-765 -765,-765l-747 0 0 -603c0,-163 -132,-294 -294,-294 -163,0 -294,132 -294,294l0 640c-308,99 -531,388 -531,728l0 1413c0,422 343,765 765,765l1101 0c285,0 536,-155 668,-392l427 0c147,1323 1271,2355 2632,2355 1333,0 2483,-996 2633,-2355 505,0 5798,0 6057,0 147,1323 1271,2355 2632,2355 1373,0 2505,-1049 2636,-2388 314,-95 543,-387 543,-732l0 -1413c0,-326 -205,-604 -493,-714l0 0zm-3372 -1977c0,325 -264,589 -589,589l0 -2159 0 0c328,0 589,271 589,589l0 981zm-14187 4497c0,8 -1,18 -3,29 -14,84 -89,147 -174,147l-1101 0c-96,0 -177,-81 -177,-177l0 -1413c0,-96 81,-177 177,-177l1101 0c96,0 177,81 177,177l0 1413zm3550 2139c-1136,0 -2060,-924 -2061,-2061 0,-1136 924,-2061 2061,-2061 506,0 1007,186 1398,547 421,389 663,941 663,1513 0,1161 -943,2060 -2061,2060l0 0zm13028 -4121l708 0c96,0 177,81 177,177l0 1332c-128,-602 -461,-1128 -922,-1503 12,-3 25,-5 37,-5l0 0zm-1706 4121c-1136,0 -2061,-924 -2061,-2061 0,-1136 924,-2061 2061,-2061 1136,0 2061,924 2061,2061 0,1136 -924,2061 -2061,2061z"/>
    <path class="fil0" d="M6175 17139c-423,-244 -963,-98 -1206,323 -242,420 -100,962 323,1206 422,244 962,99 1206,-323 243,-422 98,-963 -323,-1206l0 0zm-187 912c-72,125 -224,178 -357,129 -175,-65 -242,-268 -153,-423 81,-140 261,-189 402,-108 141,81 189,262 108,402l0 0z"/>
    <path class="fil0" d="M17498 17139c-422,-243 -963,-98 -1206,323 -340,589 90,1325 763,1325 904,0 1222,-1198 443,-1648l0 0zm-187 912c-82,142 -263,188 -402,108 -141,-81 -189,-262 -108,-402 81,-141 262,-189 402,-108 141,81 189,262 108,402z"/>
    <path class="fil0" d="M13233 13829l874 0c350,0 621,-292 608,-633 -30,-798 -170,-1683 -305,-1932 -65,-120 -170,-216 -296,-270 -136,-59 -387,-139 -806,-192 -173,-21 -347,32 -478,148 -131,115 -206,282 -206,456l0 1814c0,335 273,608 608,608l0 0zm-20 -2422c0,-12 11,-21 22,-20 369,46 563,113 646,148 5,2 8,5 10,8 55,113 202,819 235,1676 0,12 -8,22 -20,22l-874 0c-11,0 -20,-9 -20,-20l0 -1814z"/>
   </g>
  </g>
 </g>
</svg>
