<?xml version="1.0" encoding="UTF-8"?>
<!DOCTYPE svg PUBLIC "-//W3C//DTD SVG 1.1//EN" "http://www.w3.org/Graphics/SVG/1.1/DTD/svg11.dtd">
<!-- Creator: CorelDRAW 2020 (64-Bit) -->
<svg xmlns="http://www.w3.org/2000/svg" xml:space="preserve" width="210mm" height="297mm" version="1.1" style="shape-rendering:geometricPrecision; text-rendering:geometricPrecision; image-rendering:optimizeQuality; fill-rule:evenodd; clip-rule:evenodd"
viewBox="0 0 21000 29700"
 xmlns:xlink="http://www.w3.org/1999/xlink"
 xmlns:xodm="http://www.corel.com/coreldraw/odm/2003">
 <defs>
  <style type="text/css">
   <![CDATA[
    .fil0 {fill:#FFED00;fill-rule:nonzero}
   ]]>
  </style>
 </defs>
 <g id="Слой_x0020_1">
  <metadata id="CorelCorpID_0Corel-Layer"/>
  <g id="_2095672538208">
   <g>
    <path class="fil0" d="M20233 21163l-3769 -3769c-450,-450 -1182,-450 -1632,0l-980 980c-307,307 -404,746 -292,1136l-370 370c0,0 0,0 0,0 -263,263 -1898,-141 -3875,-2117 -1977,-1977 -2380,-3612 -2118,-3875 0,0 0,0 0,0l370 -370c104,30 212,45 320,45 295,0 591,-112 816,-337l980 -980c450,-450 450,-1182 0,-1632l-3769 -3769c-218,-218 -508,-338 -816,-338 -308,0 -598,120 -816,338l-980 980c-307,307 -404,746 -292,1136 0,0 -313,316 -329,336 -1043,1159 -1238,2984 -547,5165 677,2136 2136,4399 4109,6371 1973,1973 4235,3432 6371,4109 858,272 1661,407 2390,407 1195,0 2192,-362 2906,-1077l206 -206c103,30 210,46 321,46 308,0 598,-120 816,-338l980 -980c450,-450 450,-1182 0,-1632zm-15134 -13502l3769 3769 -980 981c0,0 0,0 -1,-1l-14 -14 -1870 -1870 -1885 -1884 980 -980zm11996 15796c0,0 0,0 0,0 -830,830 -2297,967 -4131,386 -1963,-622 -4060,-1980 -5904,-3825 -1844,-1844 -3203,-3941 -3825,-5904 -581,-1834 -444,-3301 386,-4131l0 0 104 -104 2925 2925 -268 268c0,0 0,0 -1,1 -1111,1113 224,3612 2118,5506 1418,1418 3174,2522 4435,2522 424,0 792,-125 1072,-405 0,0 0,0 0,0l268 -268 2925 2925 -104 104zm1342 -498l-3769 -3769 980 -980 3769 3769c0,0 -980,980 -980,980z"/>
   </g>
  </g>
  <g id="_2095672600368">
   <g>
    <path class="fil0" d="M15948 9402c-1198,-1198 -2791,-1858 -4485,-1858 -348,0 -630,282 -630,630 0,348 282,630 630,630 1358,0 2634,529 3594,1489 960,960 1489,2236 1489,3594 0,348 282,630 630,630 348,0 630,-282 630,-630 0,-1694 -660,-3287 -1858,-4485z"/>
   </g>
  </g>
  <g id="_2095672600128">
   <g>
    <path class="fil0" d="M18207 7143c-1802,-1801 -4197,-2794 -6744,-2793 -348,0 -630,282 -630,630 0,348 282,630 630,630 2211,0 4290,861 5853,2424 1563,1563 2424,3642 2424,5853 0,348 282,630 630,630 348,0 630,-282 630,-630 0,-2548 -992,-4943 -2793,-6744z"/>
   </g>
  </g>
  <g id="_2095672600416">
   <g>
    <path class="fil0" d="M13688 11661c-603,-603 -1373,-922 -2225,-922 0,0 0,0 0,0 -348,0 -630,282 -630,630 0,348 282,630 630,630 0,0 0,0 0,0 519,0 968,186 1335,553 362,362 553,823 553,1335 0,348 282,630 630,630l0 0c348,0 630,-282 630,-630 0,-853 -319,-1622 -922,-2226z"/>
   </g>
  </g>
  <g id="_2095672597440">
  </g>
  <g id="_2095672597248">
  </g>
  <g id="_2095672597200">
  </g>
  <g id="_2095672597344">
  </g>
  <g id="_2095672598784">
  </g>
  <g id="_2095672598304">
  </g>
  <g id="_2095672599936">
  </g>
  <g id="_2095672598736">
  </g>
  <g id="_2095672598400">
  </g>
  <g id="_2095672596528">
  </g>
  <g id="_2095672594032">
  </g>
  <g id="_2095672596144">
  </g>
  <g id="_2095672594752">
  </g>
  <g id="_2095672596240">
  </g>
  <g id="_2095672595280">
  </g>
 </g>
</svg>
