<?xml version="1.0" encoding="UTF-8"?>
<!DOCTYPE svg PUBLIC "-//W3C//DTD SVG 1.1//EN" "http://www.w3.org/Graphics/SVG/1.1/DTD/svg11.dtd">
<!-- Creator: CorelDRAW 2020 (64-Bit) -->
<svg xmlns="http://www.w3.org/2000/svg" xml:space="preserve" width="200mm" height="204.307mm" version="1.1" style="shape-rendering:geometricPrecision; text-rendering:geometricPrecision; image-rendering:optimizeQuality; fill-rule:evenodd; clip-rule:evenodd"
viewBox="0 0 20630 21074"
 xmlns:xlink="http://www.w3.org/1999/xlink"
 xmlns:xodm="http://www.corel.com/coreldraw/odm/2003">
 <defs>
  <style type="text/css">
   <![CDATA[
    .fil0 {fill:#FFED00;fill-rule:nonzero}
   ]]>
  </style>
 </defs>
 <g id="Слой_x0020_1">
  <metadata id="CorelCorpID_0Corel-Layer"/>
  <g id="_2946029418560">
   <g>
    <g>
     <path class="fil0" d="M10413 448l0 -448 -882 639 882 639 0 -349c5378,53 9736,4439 9736,9829 0,5422 -4411,9834 -9834,9834 -5423,0 -9834,-4412 -9834,-9834l-481 0c0,5687 4627,10315 10315,10315 5688,0 10315,-4628 10315,-10315 0,-5655 -4575,-10256 -10217,-10311z"/>
     <path class="fil0" d="M10279 19743l0 439 885 -639 -885 -639 0 358c-4673,-19 -8468,-3826 -8468,-8502 0,-4689 3814,-8504 8504,-8504 4689,0 8503,3815 8503,8504l482 0c0,-4955 -4029,-8985 -8985,-8985 -4956,0 -8985,4031 -8985,8985 0,4942 4013,8964 8949,8983z"/>
     <path class="fil0" d="M8421 12652c13,14 27,28 39,42l2 -3c514,494 1121,1222 2109,1883 2082,1388 3680,1001 4620,485 1621,-893 2348,-2803 2348,-4300 0,-3985 -3241,-7227 -7225,-7227 -3985,0 -7227,3242 -7227,7227 0,3984 3241,7225 7227,7225 244,0 444,-200 444,-445 0,-245 -199,-445 -444,-445 -3494,0 -6335,-2843 -6335,-6335 0,-3493 2843,-6335 6335,-6335 3493,0 6334,2842 6334,6335 0,1460 -777,2907 -1889,3519 -403,222 -842,333 -1309,338 280,-167 523,-393 705,-679 37,-53 81,-100 106,-159 145,-349 159,-744 243,-1113 110,-472 -2059,-1391 -2247,-803 -69,218 -173,906 -311,1087 -120,162 -420,85 -609,-75 -495,-420 -1045,-1040 -1530,-1529l1 -1c-13,-13 -29,-26 -41,-39 -13,-13 -28,-28 -40,-41l0 1c-489,-483 -1108,-1035 -1530,-1530 -159,-188 -237,-487 -73,-609 181,-137 868,-241 1087,-308 587,-188 -331,-2358 -803,-2250 -369,87 -765,99 -1113,244 -61,25 -107,71 -160,106 -1239,786 -1398,2692 -189,4111 462,542 942,1068 1436,1580l-4 2c14,13 30,25 43,39z"/>
    </g>
   </g>
   <g>
   </g>
   <g>
   </g>
   <g>
   </g>
   <g>
   </g>
   <g>
   </g>
   <g>
   </g>
   <g>
   </g>
   <g>
   </g>
   <g>
   </g>
   <g>
   </g>
   <g>
   </g>
   <g>
   </g>
   <g>
   </g>
   <g>
   </g>
   <g>
   </g>
  </g>
 </g>
</svg>
