<?xml version="1.0" encoding="UTF-8"?>
<!DOCTYPE svg PUBLIC "-//W3C//DTD SVG 1.1//EN" "http://www.w3.org/Graphics/SVG/1.1/DTD/svg11.dtd">
<!-- Creator: CorelDRAW 2020 (64-Bit) -->
<svg xmlns="http://www.w3.org/2000/svg" xml:space="preserve" width="210mm" height="297mm" version="1.1" style="shape-rendering:geometricPrecision; text-rendering:geometricPrecision; image-rendering:optimizeQuality; fill-rule:evenodd; clip-rule:evenodd"
viewBox="0 0 21000 29700"
 xmlns:xlink="http://www.w3.org/1999/xlink"
 xmlns:xodm="http://www.corel.com/coreldraw/odm/2003">
 <defs>
  <style type="text/css">
   <![CDATA[
    .fil0 {fill:#FFED00;fill-rule:nonzero}
   ]]>
  </style>
 </defs>
 <g id="Слой_x0020_1">
  <metadata id="CorelCorpID_0Corel-Layer"/>
  <path class="fil0" d="M8654 15465l3691 0 0 1230 -3691 0 0 -1230zm0 0z"/>
  <path class="fil0" d="M17037 16696l-3461 0 0 615c0,340 -275,615 -615,615l-4922 0c-340,0 -615,-275 -615,-615l0 -615 -3461 0c-795,0 -1499,-507 -1751,-1262l-2212 -6637 0 13436c0,1018 828,1846 1846,1846l17309 0c1018,0 1846,-828 1846,-1846l0 -13436 -2212 6637c-252,755 -955,1262 -1751,1262l0 0zm0 0z"/>
  <path class="fil0" d="M12961 5621l-4922 0c-1018,0 -1846,828 -1846,1846l0 615 -5135 0 2320 6962c84,252 319,421 584,421l3461 0 0 -615c0,-340 275,-615 615,-615l4922 0c340,0 615,275 615,615l0 615 3461 0c265,0 500,-169 584,-421l2321 -6962 -5135 0 0 -615c0,-1018 -828,-1846 -1846,-1846l0 0zm-5537 2461l0 -615c0,-340 276,-615 615,-615l4922 0c340,0 615,276 615,615l0 615 -6152 0zm0 0z"/>
 </g>
</svg>
