<?xml version="1.0" encoding="UTF-8"?>
<!DOCTYPE svg PUBLIC "-//W3C//DTD SVG 1.1//EN" "http://www.w3.org/Graphics/SVG/1.1/DTD/svg11.dtd">
<!-- Creator: CorelDRAW 2020 (64-Bit) -->
<svg xmlns="http://www.w3.org/2000/svg" xml:space="preserve" width="70.7071mm" height="100mm" version="1.1" style="shape-rendering:geometricPrecision; text-rendering:geometricPrecision; image-rendering:optimizeQuality; fill-rule:evenodd; clip-rule:evenodd"
viewBox="0 0 7070.71 10000"
 xmlns:xlink="http://www.w3.org/1999/xlink"
 xmlns:xodm="http://www.corel.com/coreldraw/odm/2003">
 <defs>
  <style type="text/css">
   <![CDATA[
    .fil0 {fill:#FFED00;fill-rule:nonzero}
   ]]>
  </style>
 </defs>
 <g id="Слой_x0020_1">
  <metadata id="CorelCorpID_0Corel-Layer"/>
  <g id="_2701689466256">
   <polygon class="fil0" points="2252.53,3289.56 2680.13,3289.56 2680.13,3432.1 2252.53,3432.1 " data-original="#000000" data-old_color="#000000"/>
   <polygon class="fil0" points="2822.67,3289.56 3392.82,3289.56 3392.82,3432.1 2822.67,3432.1 " data-original="#000000" data-old_color="#000000"/>
   <polygon class="fil0" points="2252.53,3574.64 3392.82,3574.64 3392.82,3717.17 2252.53,3717.17 " data-original="#000000" data-old_color="#000000"/>
   <polygon class="fil0" points="2822.67,4002.25 4105.5,4002.25 4105.5,4144.78 2822.67,4144.78 " data-original="#000000" data-old_color="#000000"/>
   <polygon class="fil0" points="3107.74,4287.32 4533.11,4287.32 4533.11,4429.85 3107.74,4429.86 " data-original="#000000" data-old_color="#000000"/>
   <polygon class="fil0" points="4248.04,4002.25 4533.11,4002.25 4533.11,4144.78 4248.04,4144.78 " data-original="#000000" data-old_color="#000000"/>
   <polygon class="fil0" points="3392.82,4572.39 4390.57,4572.39 4390.57,4714.93 3392.82,4714.93 " data-original="#000000" data-old_color="#000000"/>
   <path class="fil0" d="M5687.08 3748.32c-18,-102.18 -106.8,-176.7 -210.56,-176.7 -69.74,0 -135.16,34.06 -175.15,91.18l-287.64 410.72 -53.02 0 0 -997.75c0,-118.06 -95.74,-213.8 -213.8,-213.8l-2708.19 0c-118.06,0 -213.8,95.74 -213.8,213.8l0 71.27 -213.81 0c-118.06,0 -213.8,95.74 -213.8,213.8l0 3563.41c0,118.06 95.74,213.8 213.8,213.8l3563.41 0c118.06,-0 213.8,-95.75 213.8,-213.81l0 -2636.93c0,-1 0,-1.85 0,-2.85l263.69 -376.44c24.99,-35.67 38.47,-78.27 38.47,-121.85 0,-12.67 -1.14,-25.39 -3.39,-37.86l-0.01 0zm-1658.84 2339.31l-116.74 -81.74 1103.66 -1576.24 116.74 81.53 -1103.66 1576.45zm-195.35 37.28l110.39 77.33 -171.04 127 60.65 -204.33zm1263.8 -1812l81.96 -116.74 116.74 81.67 -81.74 116.81 -116.95 -81.74zm-1026.26 -1148.7l285.07 0 0 427.61 -85.52 -114.03c-14.02,-17.03 -34.95,-26.92 -57.01,-26.92 -22.07,0 -43,9.89 -57.01,26.93l-85.52 114.03 -0 -427.61zm-1867.23 313.58l1924.24 0 0 641.41c-0,39.35 31.91,71.27 71.27,71.27 22.43,0 43.57,-10.56 57.02,-28.51l156.79 -209.03 156.79 209.03c13.44,17.94 34.58,28.51 57.01,28.51 7.66,-0.02 15.26,-1.25 22.53,-3.64 29.1,-9.69 48.74,-36.94 48.74,-67.62 0,0 0,-0.02 0,-0.02l0 -641.41 213.8 0c39.35,0 71.27,31.92 71.27,71.27l0 1277.05 -403.24 575.92 -992.63 0 -905.61 -905.61c-13.35,-13.36 -31.48,-20.88 -50.38,-20.88l-498.88 0 0 -926.49c0,-39.35 31.92,-71.27 71.27,-71.27l-0 0zm-498.88 356.34l213.8 0 0 712.68 -285.07 0 0 -641.41c0,-39.35 31.92,-71.27 71.27,-71.27l-0 0zm3563.41 3705.95c0,39.35 -31.91,71.27 -71.27,71.27l-3563.41 0c-39.35,-0 -71.27,-31.92 -71.27,-71.27l0 -2779.46 896.98 0 905.61 905.61c13.36,13.36 31.49,20.88 50.39,20.88l922.28 0 -567.08 809.89c-4.4,6.27 -7.76,13.24 -9.91,20.59l-128.28 432.03c-1.9,6.51 -2.88,13.29 -2.88,20.07 0,39.35 31.92,71.27 71.27,71.27 15.28,0 30.18,-4.93 42.44,-14.02l361.97 -268.47c6.15,-4.55 11.56,-10.1 15.96,-16.38l738.55 -1054.98 408.65 0 0 1852.97zm-1163.17 -2777.11l-285.07 0 0 -33.92 285.07 -407.15 0 441.08zm289.06 -1102.45l-122.58 175.11 -116.6 -81.74 122.58 -175.18c13.35,-18.86 35.04,-30.07 58.15,-30.07 34.46,0 64,24.67 70.13,58.58 0.76,4.18 1.15,8.44 1.15,12.69 0,14.54 -4.49,28.72 -12.84,40.62l0 0z" data-original="#000000" data-old_color="#000000"/>
   <path class="fil0" d="M2608.87 5712.68c61.35,0.05 119.78,26.43 160.36,72.39l106.9 -94.29c-67.59,-76.66 -165.03,-120.64 -267.27,-120.64 -196.77,0 -356.34,159.57 -356.34,356.34 0,196.77 159.57,356.34 356.34,356.34 102.24,0 199.68,-43.98 267.29,-120.64l-106.9 -94.29c-40.58,46 -99.03,72.39 -160.39,72.39 -118.06,0 -213.8,-95.74 -213.8,-213.8 0,-118.06 95.74,-213.8 213.8,-213.8 0,0 0.03,0 0.03,0l-0.01 0z" data-original="#000000" data-old_color="#000000"/>
   <path class="fil0" d="M2608.87 5285.07c-354.18,-0 -641.41,287.23 -641.41,641.41 0,354.18 287.23,641.41 641.41,641.41 354.18,0 641.41,-287.23 641.41,-641.41 -0.39,-353.99 -287.42,-641.03 -641.41,-641.42l-0.01 0.01zm641.41 1781.7c-275.47,0 -498.88,-223.4 -498.88,-498.88 0,-275.48 223.4,-498.88 498.88,-498.88 275.48,0 498.88,223.4 498.88,498.88 -0.24,275.34 -223.53,498.63 -498.9,498.88l0.02 0z" data-original="#000000" data-old_color="#000000"/>
  </g>
 </g>
</svg>
