<?xml version="1.0" encoding="UTF-8"?>
<!DOCTYPE svg PUBLIC "-//W3C//DTD SVG 1.1//EN" "http://www.w3.org/Graphics/SVG/1.1/DTD/svg11.dtd">
<!-- Creator: CorelDRAW 2020 (64-Bit) -->
<svg xmlns="http://www.w3.org/2000/svg" xml:space="preserve" width="70.7071mm" height="100mm" version="1.1" style="shape-rendering:geometricPrecision; text-rendering:geometricPrecision; image-rendering:optimizeQuality; fill-rule:evenodd; clip-rule:evenodd"
viewBox="0 0 7070.71 10000"
 xmlns:xlink="http://www.w3.org/1999/xlink"
 xmlns:xodm="http://www.corel.com/coreldraw/odm/2003">
 <defs>
  <style type="text/css">
   <![CDATA[
    .fil0 {fill:#FFED00;fill-rule:nonzero}
   ]]>
  </style>
 </defs>
 <g id="Слой_x0020_1">
  <metadata id="CorelCorpID_0Corel-Layer"/>
  <g id="_2701698251392">
   <g>
    <g>
     <path class="fil0" d="M5615.51 4665.86l-66.78 0 0 -200.48 0 -712.68c0,-233.33 -189.83,-423.16 -423.15,-423.16l-1834.97 0 -1237.95 -353.7c-0.36,-0.1 -0.72,-0.15 -1.08,-0.25 -0.36,-0.1 -0.71,-0.24 -1.08,-0.33 -0.75,-0.19 -1.49,-0.28 -2.23,-0.44 -1.15,-0.24 -2.3,-0.49 -3.45,-0.68 -1.04,-0.17 -2.07,-0.28 -3.11,-0.4 -1.21,-0.14 -2.41,-0.27 -3.62,-0.34 -0.98,-0.05 -1.95,-0.06 -2.93,-0.08 -1.25,-0.02 -2.48,-0.03 -3.72,0.03 -0.92,0.04 -1.84,0.12 -2.74,0.2 -1.27,0.11 -2.55,0.22 -3.8,0.41 -0.86,0.12 -1.7,0.29 -2.55,0.44 -1.3,0.23 -2.58,0.48 -3.86,0.79 -0.79,0.2 -1.57,0.42 -2.35,0.64 -1.3,0.37 -2.58,0.76 -3.87,1.2 -0.72,0.26 -1.43,0.54 -2.15,0.82 -1.29,0.5 -2.58,1.02 -3.83,1.6 -0.67,0.31 -1.32,0.65 -1.98,0.98 -1.26,0.63 -2.49,1.27 -3.71,2 -0.63,0.36 -1.24,0.76 -1.86,1.15 -1.2,0.75 -2.37,1.52 -3.51,2.34 -0.6,0.43 -1.18,0.89 -1.76,1.35 -1.09,0.85 -2.18,1.71 -3.23,2.63 -0.59,0.52 -1.15,1.06 -1.72,1.6 -0.98,0.93 -1.95,1.85 -2.88,2.83 -0.58,0.62 -1.12,1.26 -1.68,1.9 -0.85,0.97 -1.68,1.95 -2.48,2.98 -0.57,0.74 -1.1,1.49 -1.65,2.25 -0.7,0.99 -1.4,1.99 -2.04,3.01 -0.55,0.87 -1.06,1.78 -1.57,2.68 -0.56,0.99 -1.12,1.99 -1.63,3.01 -0.5,1 -0.94,2.02 -1.4,3.05 -0.44,1.01 -0.88,2.01 -1.27,3.05 -0.41,1.09 -0.77,2.2 -1.13,3.32 -0.23,0.72 -0.52,1.4 -0.73,2.13 -0.11,0.36 -0.15,0.72 -0.25,1.08 -0.1,0.36 -0.24,0.71 -0.33,1.08l-76.4 305.67 -215.12 0c-232.86,0 -422.36,189.06 -423.13,421.75 -0.01,0.48 -0.07,0.94 -0.07,1.41l0 2316.21c0,36.88 30.02,66.81 66.81,66.81 36.88,0 66.81,-29.93 66.81,-66.81l-0 -2008.04c75.76,71.23 177.62,115.01 289.57,115.01l3447.6 -0c0.08,0 0.15,-0.01 0.23,-0.01 159.53,0.12 289.3,129.96 289.3,289.54l0 467.73 -735.06 0c-0.04,0 -0.08,0.01 -0.12,0.01 -1.93,0 -3.86,0.11 -5.77,0.29 -2.13,0.19 -4.23,0.49 -6.3,0.87 -0.31,0.05 -0.62,0.08 -0.93,0.14 -1.75,0.35 -3.46,0.81 -5.16,1.29 -0.37,0.11 -0.76,0.18 -1.12,0.29 -1.52,0.46 -2.98,1.02 -4.45,1.58 -0.56,0.21 -1.13,0.39 -1.69,0.62 -1.23,0.51 -2.41,1.1 -3.6,1.68 -0.78,0.37 -1.58,0.72 -2.34,1.12 -0.93,0.49 -1.8,1.05 -2.69,1.59 -0.99,0.59 -2,1.16 -2.96,1.8 -0.65,0.43 -1.25,0.92 -1.87,1.37 -1.14,0.82 -2.29,1.63 -3.38,2.53 -0.47,0.39 -0.91,0.83 -1.36,1.23 -1.17,1.02 -2.33,2.02 -3.44,3.13 -0.65,0.65 -1.24,1.36 -1.85,2.04 -0.87,0.94 -1.75,1.85 -2.58,2.85 -1.38,1.68 -2.67,3.43 -3.89,5.24 -0.03,0.03 -0.05,0.06 -0.07,0.1l-356.32 534.52c-2.48,3.72 -4.59,7.67 -6.25,11.78 -0.63,1.53 -1.14,3.09 -1.65,4.64 -0.15,0.47 -0.35,0.93 -0.49,1.4 -0.5,1.65 -0.88,3.31 -1.25,4.97 -0.1,0.44 -0.22,0.87 -0.31,1.3 -0.29,1.49 -0.49,3 -0.68,4.51 -0.08,0.64 -0.21,1.28 -0.27,1.93 -0.12,1.24 -0.15,2.47 -0.2,3.71 -0.04,0.94 -0.12,1.89 -0.12,2.84 0,0.92 0.08,1.84 0.11,2.75 0.04,1.27 0.08,2.54 0.21,3.8 0.06,0.62 0.18,1.23 0.26,1.85 0.2,1.53 0.39,3.06 0.69,4.59 0.08,0.42 0.21,0.83 0.3,1.25 0.36,1.67 0.76,3.35 1.26,5.02 0.14,0.47 0.34,0.93 0.49,1.41 0.51,1.55 1.02,3.11 1.65,4.64 1.67,4.1 3.78,8.05 6.27,11.78l356.31 534.44c0.02,0.03 0.04,0.04 0.05,0.07 1.43,2.13 3,4.16 4.66,6.11 0.54,0.64 1.12,1.24 1.68,1.85 1.13,1.24 2.31,2.43 3.53,3.58 0.72,0.68 1.43,1.34 2.16,1.97 1.3,1.11 2.65,2.15 4.03,3.17 0.62,0.45 1.22,0.95 1.85,1.38 2,1.36 4.08,2.62 6.23,3.76 0.54,0.29 1.1,0.53 1.65,0.79 1.71,0.86 3.46,1.65 5.25,2.35 0.69,0.28 1.39,0.53 2.09,0.77 1.7,0.61 3.43,1.14 5.2,1.61 0.72,0.19 1.43,0.38 2.16,0.56 1.81,0.42 3.64,0.74 5.51,1.01 0.68,0.1 1.35,0.23 2.02,0.31 2.3,0.26 4.63,0.4 7,0.42 0.19,0 0.37,0.04 0.57,0.04 0.04,0 0.08,-0.01 0.12,-0.01l734.87 0.01 0 467.77c0,159.66 -129.89,289.55 -289.53,289.55l-3447.6 0c-159.64,0 -289.53,-129.89 -289.53,-289.55 0,-0.35 -0.04,-0.69 -0.05,-1.03l0 -266.31c0,-36.79 -29.93,-66.81 -66.81,-66.81 -36.79,0 -66.81,30.02 -66.81,66.81l0 267.35c0,0.69 0.08,1.37 0.11,2.06 1.11,232.39 190.46,421.11 423.1,421.11l3447.59 0c233.31,0 423.12,-189.79 423.15,-423.1 0,-0.01 0,-0.02 0,-0.04l0 -467.8 66.78 0c110.5,0 200.41,-89.91 200.41,-200.41l-0 -1069.09c-0.03,-110.5 -89.93,-200.41 -200.43,-200.41zm-3533.13 -1542.56l1178.94 336.86c0.05,0.02 0.11,0.03 0.17,0.04l790.15 225.76 -2109.89 -0 140.63 -562.66zm3332.72 1033.9c-75.75,-71.22 -177.59,-114.98 -289.52,-114.98 -0.11,0 -0.22,0.02 -0.35,0.02l-3447.26 0c-159.65,0 -289.54,-129.89 -289.54,-289.54 0,-159.65 129.89,-289.54 289.54,-289.54l181.71 0 -55.68 222.79 -126.02 -0c-36.9,0 -66.81,29.92 -66.81,66.81 0,36.9 29.92,66.81 66.81,66.81l177.96 0c0.09,0 0.19,0.02 0.29,0.02 0.07,0 0.14,-0.02 0.21,-0.02l2672.03 0c0.09,0 0.17,0.02 0.25,0.02 0.07,0 0.14,-0.02 0.21,-0.02l507.48 0c36.9,0 66.81,-29.92 66.81,-66.81 0,-36.9 -29.92,-66.81 -66.81,-66.81l-498.37 0 -779.75 -222.79 1367.28 0c159.64,0 289.53,129.89 289.53,289.54l0 404.5zm267.19 1778.12l0 0c0,36.82 -29.96,66.78 -66.78,66.78l-899.71 0 -311.79 -467.64 311.79 -467.71 899.71 -0c0.94,0 1.85,-0.11 2.77,-0.14 22.41,-0.31 43.94,-4.3 64.01,-11.41l0 880.13zm-66.78 -1002.28c-0.46,0 -0.92,0.06 -1.38,0.07l-65.4 0 0 -133.63 66.78 -0c36.82,0 66.78,29.96 66.78,66.78 0,36.82 -29.96,66.78 -66.78,66.78z" data-original="#000000" data-old_color="#000000"/>
    </g>
   </g>
   <g>
    <g>
     <path class="fil0" d="M4947.34 5289.46c-135.09,0 -244.98,109.91 -244.98,244.99 0,135.09 109.9,244.98 244.98,244.98 135.09,0 244.98,-109.9 244.98,-244.98 0,-135.09 -109.9,-244.99 -244.98,-244.99zm0 356.35c-61.41,0 -111.36,-49.95 -111.36,-111.36 0,-61.41 49.95,-111.36 111.36,-111.36 61.41,0 111.36,49.96 111.36,111.36 0,61.4 -49.95,111.36 -111.36,111.36z" data-original="#000000" data-old_color="#000000"/>
    </g>
   </g>
  </g>
 </g>
</svg>
