<?xml version="1.0" encoding="UTF-8"?>
<!DOCTYPE svg PUBLIC "-//W3C//DTD SVG 1.1//EN" "http://www.w3.org/Graphics/SVG/1.1/DTD/svg11.dtd">
<!-- Creator: CorelDRAW 2020 (64-Bit) -->
<svg xmlns="http://www.w3.org/2000/svg" xml:space="preserve" width="70.7071mm" height="100mm" version="1.1" style="shape-rendering:geometricPrecision; text-rendering:geometricPrecision; image-rendering:optimizeQuality; fill-rule:evenodd; clip-rule:evenodd"
viewBox="0 0 7070.71 10000"
 xmlns:xlink="http://www.w3.org/1999/xlink"
 xmlns:xodm="http://www.corel.com/coreldraw/odm/2003">
 <defs>
  <style type="text/css">
   <![CDATA[
    .str0 {stroke:#FFED00;stroke-width:6.73;stroke-miterlimit:22.9256}
    .fil0 {fill:#FFED00;fill-rule:nonzero}
   ]]>
  </style>
 </defs>
 <g id="Слой_x0020_1">
  <metadata id="CorelCorpID_0Corel-Layer"/>
  <g id="_2701851302576">
   <path class="fil0 str0" d="M5807.55 3801c-15.7,-58.38 -54,-108.14 -106.4,-138.32 -52.44,-30.32 -114.79,-38.52 -173.28,-22.82 -58.41,15.74 -108.18,54 -138.36,106.4l-38 66.13c-36.11,-20.75 -82.24,-8.54 -103.36,27.39l-193.06 329.08 -66.13 -38c-17.52,-10.13 -38.37,-12.88 -57.9,-7.61 -19.56,5.31 -36.19,18.15 -46.24,35.74 -20.6,36.33 -8.05,82.5 28.13,103.36l66.13 38 -646.05 1119.58 -159.62 426.42 -76.01 142.1c-44.5,77.42 -39.75,173.65 12.17,246.28l-171.01 209.76 -47.88 -120.06c-21.6,-53.52 -71.59,-90.19 -129.08,-94.67 -57.53,-4.53 -112.64,23.9 -142.29,73.37l-27.35 46.35 -25.83 -304.03c-5.94,-71.92 -61.64,-129.74 -133.27,-138.43 -71.66,-8.65 -139.51,34.29 -162.4,102.73l-186.97 560.92c-13.06,39.67 8.31,82.43 47.88,95.79 7.42,3.45 15.4,5.53 23.57,6.05 32.66,0.11 61.75,-20.71 72.22,-51.66l186.2 -560.92 26.61 308.55c5.49,65.84 52.81,120.58 117.16,135.5 64.35,14.92 130.93,-13.43 164.82,-70.1l28.13 -46.39 47.13 119.35c20,50.29 65.24,86.18 118.8,94.15 53.55,7.98 107.29,-13.14 141.14,-55.41l177.1 -224.2c19.6,5.12 39.78,7.68 60.05,7.61 81.46,0.63 157.1,-42.27 198.37,-112.53l76.01 -126.93 289.59 -351.9 652.89 -1133.27 66.13 38c17.63,10.09 30.47,26.76 35.7,46.39 5.27,19.48 2.53,40.27 -7.57,57.75l-304.03 526.74c-11.47,17.29 -15.36,38.52 -10.76,58.79 4.6,20.23 17.26,37.71 35.07,48.36 17.52,10.17 38.37,12.92 57.9,7.65 19.56,-5.31 36.19,-18.15 46.24,-35.74l304.03 -526.74c30.32,-52.44 38.52,-114.79 22.79,-173.28 -15.74,-58.41 -54,-108.18 -106.4,-138.36l-66.13 -38 190.02 -329.11c20.75,-36.11 8.54,-82.21 -27.35,-103.36l38 -66.13c31.14,-53.26 39.38,-116.87 22.79,-176.32zm-286.55 21.27c10.06,-17.59 26.76,-30.47 46.39,-35.7 19.52,-4.82 40.15,-2.11 57.75,7.61 17.63,10.06 30.47,26.76 35.74,46.35 4.82,19.52 2.11,40.15 -7.61,57.75l-38 66.13 -132.27 -76.01 38 -66.13zm-1035.96 2122.13l-38 -22.04 -112.49 -65.39 107.92 -288.81 239.41 138.32 -196.85 237.93zm-228.02 219.63c-32.1,-22.38 -41.97,-65.43 -22.79,-99.57l38 -66.1 132.23 76.01 -38 65.35c-10.65,18.48 -28.54,31.62 -49.36,36.26 -20.82,4.6 -42.61,0.3 -60.08,-11.95zm511.52 -582.18l-262.98 -152.01 608.05 -1053.48 262.98 152.01 -608.05 1053.48zm684.06 -1184.97l-262.98 -152.01 152.01 -262.98 262.98 152.01 -152.01 262.98zm0 0z" data-original="#000000" data-old_color="#000000"/>
   <path class="fil0 str0" d="M2454.13 6126.03l-269.03 268.32 -161.14 -161.14c-29.65,-29.47 -77.53,-29.47 -107.18,0 -14.4,14.29 -22.49,33.7 -22.49,53.96 0,20.26 8.09,39.71 22.49,53.96l161.14 161.14c28.5,28.28 67.03,44.13 107.18,44.09 40.38,0.22 79.24,-15.62 107.92,-44.09l268.29 -269.07c25.83,-30.17 24.09,-75.11 -3.97,-103.17 -28.09,-28.09 -73.04,-29.84 -103.21,-4.01l0 -0zm0 0z" data-original="#000000" data-old_color="#000000"/>
   <path class="fil0 str0" d="M1558.79 6330.48c0,356.84 289.26,646.05 646.05,646.05 356.8,0 646.05,-289.22 646.05,-646.05 0,-41.97 -34.03,-76.01 -76.01,-76.01 -41.97,0 -76.01,34.03 -76.01,76.01 0,272.85 -221.19,494.04 -494.04,494.04 -272.85,0 -494.04,-221.19 -494.04,-494.04 0,-272.85 221.19,-494.04 494.04,-494.04 106.96,-0.3 211.06,34.4 296.42,98.83 33.59,25.2 81.24,18.37 106.4,-15.22 25.2,-33.59 18.41,-81.2 -15.18,-106.4 -195.77,-146.82 -457.71,-170.42 -676.56,-61.01 -218.89,109.44 -357.13,333.16 -357.13,577.84l0.01 0zm0 0z" data-original="#000000" data-old_color="#000000"/>
   <path class="fil0 str0" d="M3991 3328.23c41.97,0 76.01,-34 76.01,-76.01 0,-41.97 -34.03,-76.01 -76.01,-76.01l-1976.17 0c-41.97,0 -76.01,34.03 -76.01,76.01l0 304.03c0,42.01 34.03,76.01 76.01,76.01l1976.17 -0c41.97,0 76.01,-34 76.01,-76.01 0,-41.97 -34.03,-76.01 -76.01,-76.01l-1900.16 0 0 -152.01 1900.16 0zm0 0z" data-original="#000000" data-old_color="#000000"/>
   <path class="fil0 str0" d="M2242.86 3784.27c-41.97,0 -76.01,34.03 -76.01,76.01 0,42.01 34.03,76.01 76.01,76.01l1520.13 0c41.97,0 76.01,-34 76.01,-76.01 0,-41.97 -34.03,-76.01 -76.01,-76.01l-1520.13 0zm0 0z" data-original="#000000" data-old_color="#000000"/>
   <path class="fil0 str0" d="M4219.02 4316.31l-1672.14 0c-41.97,0 -76.01,34.03 -76.01,76.01 0,42.01 34.03,76.01 76.01,76.01l1672.14 0c41.97,0 76.01,-34 76.01,-76.01 0,-41.97 -34.03,-76.01 -76.01,-76.01zm0 0z" data-original="#000000" data-old_color="#000000"/>
   <path class="fil0 str0" d="M3458.96 4848.36c0,-41.97 -34.03,-76.01 -76.01,-76.01l-1520.13 0c-41.97,0 -76.01,34.03 -76.01,76.01 0,42.01 34.03,76.01 76.01,76.01l1520.13 0c41.97,0 76.01,-34 76.01,-76.01zm0 0z" data-original="#000000" data-old_color="#000000"/>
   <path class="fil0 str0" d="M4219.02 4772.35l-532.04 0c-41.97,0 -76.01,34.03 -76.01,76.01 0,42.01 34.03,76.01 76.01,76.01l532.04 0c41.97,0 76.01,-34 76.01,-76.01 0,-41.97 -34.03,-76.01 -76.01,-76.01zm0 0z" data-original="#000000" data-old_color="#000000"/>
   <path class="fil0 str0" d="M2622.89 5304.4c41.97,0 76.01,-34 76.01,-76.01 0,-41.97 -34.03,-76.01 -76.01,-76.01l-760.06 0c-41.97,0 -76.01,34.03 -76.01,76.01 0,42.01 34.03,76.01 76.01,76.01l760.06 0zm0 0z" data-original="#000000" data-old_color="#000000"/>
   <path class="fil0 str0" d="M2926.91 5304.4l532.05 0c41.97,0 76.01,-34 76.01,-76.01 0,-41.97 -34.03,-76.01 -76.01,-76.01l-532.05 0c-41.97,0 -76.01,34.03 -76.01,76.01 0,42.01 34.03,76.01 76.01,76.01zm0 0z" data-original="#000000" data-old_color="#000000"/>
   <path class="fil0 str0" d="M4675.06 6216.47c-41.97,0 -76.01,34.03 -76.01,76.01l0 760.06c0,42.01 -34.03,76.01 -76.01,76.01l-3040.26 0c-41.97,0 -76.01,-34 -76.01,-76.01l0 -4104.35c0,-41.97 34.03,-76.01 76.01,-76.01l3040.26 0c41.97,0 76.01,34.03 76.01,76.01l0 1427.42c0,41.97 34.03,76.01 76.01,76.01 41.97,0 76.01,-34.03 76.01,-76.01l0 -1427.42c0,-125.92 -102.1,-228.02 -228.02,-228.02l-3040.26 0c-125.92,0 -228.02,102.1 -228.02,228.02l0 4104.35c0,125.96 102.1,228.02 228.02,228.02l3040.26 0c125.92,0 228.02,-102.06 228.02,-228.02l0 -760.06c0,-41.97 -34.03,-76.01 -76.01,-76.01zm0 0z" data-original="#000000" data-old_color="#000000"/>
  </g>
 </g>
</svg>
