<?xml version="1.0" encoding="UTF-8"?>
<!DOCTYPE svg PUBLIC "-//W3C//DTD SVG 1.1//EN" "http://www.w3.org/Graphics/SVG/1.1/DTD/svg11.dtd">
<!-- Creator: CorelDRAW 2020 (64-Bit) -->
<svg xmlns="http://www.w3.org/2000/svg" xml:space="preserve" width="70.7071mm" height="100mm" version="1.1" style="shape-rendering:geometricPrecision; text-rendering:geometricPrecision; image-rendering:optimizeQuality; fill-rule:evenodd; clip-rule:evenodd"
viewBox="0 0 7070.71 10000"
 xmlns:xlink="http://www.w3.org/1999/xlink"
 xmlns:xodm="http://www.corel.com/coreldraw/odm/2003">
 <defs>
  <style type="text/css">
   <![CDATA[
    .fil0 {fill:#FFED00;fill-rule:nonzero}
   ]]>
  </style>
 </defs>
 <g id="Слой_x0020_1">
  <metadata id="CorelCorpID_0Corel-Layer"/>
  <g id="_2703594624592">
   <g>
    <g>
     <path class="fil0" d="M5645.55 6699.83c-55.68,-185.39 -208.51,-322.06 -398.95,-356.66l-480.08 -87.35 0 -37.9c179.54,-104.26 311.01,-282.11 351.98,-492.38 133.01,-27.51 233.31,-145.52 233.31,-286.57l0 -722.61c0,-204.19 -133.74,-382.27 -327.76,-440.21l-36.58 -36.58c-170.17,-170.17 -396.39,-263.82 -637.02,-263.82 -496.69,0 -900.84,404.07 -900.84,900.84l0 562.39c0,141.05 100.3,259.06 233.31,286.57 41.04,210.26 172.44,388.19 351.98,492.37l0 37.9 -480.08 87.28c-190.44,34.68 -343.27,171.34 -398.95,356.73l-170.39 568.17 2830.46 -0 -170.39 -568.17zm-513.23 -1134.88l0 -251.97c43.53,25.39 73.16,72.06 73.16,125.98 0,53.92 -29.63,100.6 -73.16,125.99zm-1463.23 0c-43.53,-25.39 -73.16,-72.06 -73.16,-125.98 0,-53.92 29.63,-100.6 73.16,-125.98l0 251.97zm0 -491.79l0 83.55c-26.04,6.8 -50.48,17.05 -73.16,30.29l0 -310.42c0,-416 338.44,-754.51 754.51,-754.51 201.48,0 391.05,78.5 533.57,221.02l64.53 64.6 19.68 4.83c139.74,34.9 237.26,159.86 237.26,303.84l0 470.65c-22.68,-13.24 -47.11,-23.56 -73.16,-30.29l0 -83.55 -232 0c-198.27,0 -387.75,-94.67 -506.64,-253.21l-58.16 -77.7 -145.37 145.44c-119.69,119.62 -278.74,185.46 -447.89,185.46l-73.16 0zm146.32 512.13l0 -369.17c180.64,-16.75 348.25,-95.11 478.18,-224.97l28.46 -28.46c146.69,161.91 357.98,256.79 578.27,256.79l85.67 0 0 365.81c0,322.71 -262.58,585.29 -585.29,585.29 -322.72,-0 -585.29,-262.58 -585.29,-585.29zm372.03 699.71c67.53,20.63 139.08,31.9 213.27,31.9 74.19,0 145.74,-11.27 213.27,-31.9l-213.27 159.93 -213.26 -159.93zm101.91 259.29l-149.32 149.25 -96.87 -290.52 46.6 -8.41 199.59 149.69zm422.29 -149.69l46.53 8.49 -96.87 290.52 -149.32 -149.25 199.66 -149.76zm-1529.51 727.08l113.99 -379.78c39.73,-132.42 148.88,-230.09 284.96,-254.75l316.79 -57.58 178.29 534.96 324.54 -324.69 324.62 324.62 178.29 -534.96 316.79 57.58c136.01,24.73 245.24,122.4 284.96,254.75l113.91 379.85 -2437.14 0z" data-original="#000000" data-old_color="#000000"/>
    </g>
   </g>
   <g>
    <g>
     <path class="fil0" d="M3156.96 3914.95l0 -463.7 -198.56 -52.9c-5.85,-15.29 -12.22,-30.58 -19.17,-45.87l103.08 -178.07 -327.76 -327.76 -178.07 103.08c-15.22,-6.95 -30.51,-13.32 -45.73,-19.17l-53.11 -198.56 -463.55 -0 -53.04 198.63c-15.29,5.85 -30.51,12.22 -45.73,19.17l-178.07 -103.16 -327.76 327.76 103.08 178.07c-7.02,15.29 -13.39,30.58 -19.24,45.87l-198.56 52.9 0 463.7 198.56 52.9c5.85,15.29 12.22,30.58 19.24,45.87l-103.08 178.07 327.76 327.76 178.07 -103.08c15.22,6.95 30.51,13.32 45.73,19.17l53.04 198.56 463.55 0 53.04 -198.63c15.29,-5.85 30.51,-12.22 45.73,-19.17l178.07 103.08 327.76 -327.76 -103.08 -178.07c6.95,-15.29 13.39,-30.58 19.17,-45.87l198.63 -52.82zm-297.62 252.77l-168.86 168.93 -148.88 -86.26 -35.56 18.22c-32.63,16.75 -65.85,30.65 -98.62,41.26l-37.97 12.22 -44.19 165.78 -238.8 0 -44.19 -165.78 -37.97 -12.22c-32.78,-10.68 -65.99,-24.51 -98.62,-41.26l-35.56 -18.22 -148.88 86.26 -168.86 -168.93 86.19 -148.81 -18.22 -35.56c-16.9,-32.85 -30.73,-66.06 -41.19,-98.62l-12.22 -38.04 -165.87 -44.19 0 -238.8 165.86 -44.19 12.22 -38.04c10.46,-32.48 24.29,-65.7 41.19,-98.62l18.22 -35.56 -86.19 -148.81 168.86 -168.93 148.88 86.26 35.56 -18.22c32.63,-16.75 65.85,-30.65 98.62,-41.26l37.97 -12.22 44.19 -165.78 238.81 0 44.19 165.78 37.97 12.22c32.78,10.68 65.99,24.51 98.62,41.26l35.56 18.22 148.88 -86.26 168.86 168.93 -86.19 148.81 18.22 35.56c16.9,32.85 30.73,66.06 41.19,98.62l12.22 38.04 165.86 44.19 0 238.8 -165.86 44.19 -12.22 38.04c-10.46,32.48 -24.29,65.7 -41.19,98.62l-18.22 35.56 86.18 148.81z" data-original="#000000" data-old_color="#000000"/>
    </g>
   </g>
   <g>
    <g>
     <path class="fil0" d="M2616.89 3988.69c66.14,-88.82 101.11,-194.46 101.11,-305.59 0,-282.33 -229.73,-512.13 -512.13,-512.13 -282.4,0 -512.13,229.8 -512.13,512.13 0,282.33 229.73,512.13 512.13,512.13 114.13,0 222.04,-36.65 312.18,-106.08l-89.26 -115.89c-64.38,49.53 -141.42,75.65 -222.92,75.65 -201.71,0 -365.81,-164.1 -365.81,-365.81 0,-201.71 164.1,-365.81 365.81,-365.81 201.71,0 365.81,164.1 365.81,365.81 0,79.38 -24.95,154.81 -72.14,218.17l117.35 87.43z" data-original="#000000" data-old_color="#000000"/>
    </g>
   </g>
   <g>
    <g>
     <path class="fil0" d="M5665.88 3631.37l-94.6 94.6 0 -262.36c0,-403.41 -328.2,-731.61 -731.61,-731.61l-438.97 0 0 146.32 438.97 0c322.71,0 585.29,262.58 585.29,585.29l0 262.36 -94.6 -94.6 -103.45 103.45 271.21 271.21 271.21 -271.21 -103.45 -103.45z" data-original="#000000" data-old_color="#000000"/>
    </g>
   </g>
   <g>
    <g>
     <path class="fil0" d="M1620.58 6536.39l0 -262.36 94.6 94.6 103.45 -103.45 -271.21 -271.21 -271.21 271.21 103.45 103.45 94.6 -94.6 0 262.36c0,403.41 328.2,731.61 731.61,731.61l0 -146.32c-322.71,0 -585.29,-262.58 -585.29,-585.29z" data-original="#000000" data-old_color="#000000"/>
    </g>
   </g>
   <g>
    <g>
     <rect class="fil0" x="1254.77" y="4926.84" width="1902.19" height="146.32" data-original="#000000" data-old_color="#000000"/>
    </g>
   </g>
   <g>
    <g>
     <rect class="fil0" x="1254.77" y="5512.13" width="1902.19" height="146.32" data-original="#000000" data-old_color="#000000"/>
    </g>
   </g>
   <g>
    <g>
     <rect class="fil0" x="1254.77" y="5219.48" width="877.94" height="146.32" data-original="#000000" data-old_color="#000000"/>
    </g>
   </g>
   <g>
    <g>
     <polygon class="fil0" points="2699.7,5219.48 2352.19,5219.48 2279.03,5219.48 2279.03,5365.8 2352.19,5365.8 2699.7,5365.8 3156.96,5365.8 3156.96,5219.48 " data-original="#000000" data-old_color="#000000"/>
    </g>
   </g>
   <g>
    <g>
     <rect class="fil0" x="4108.06" y="2732" width="146.32" height="146.32" data-original="#000000" data-old_color="#000000"/>
    </g>
   </g>
   <g>
    <g>
     <rect class="fil0" x="3815.41" y="2732" width="146.32" height="146.32" data-original="#000000" data-old_color="#000000"/>
    </g>
   </g>
   <g>
    <g>
     <rect class="fil0" x="2352.19" y="7121.68" width="146.32" height="146.32" data-original="#000000" data-old_color="#000000"/>
    </g>
   </g>
   <g>
    <g>
     <rect class="fil0" x="2644.84" y="7121.68" width="146.32" height="146.32" data-original="#000000" data-old_color="#000000"/>
    </g>
   </g>
  </g>
 </g>
</svg>
