<?xml version="1.0" encoding="UTF-8"?>
<!DOCTYPE svg PUBLIC "-//W3C//DTD SVG 1.1//EN" "http://www.w3.org/Graphics/SVG/1.1/DTD/svg11.dtd">
<!-- Creator: CorelDRAW 2020 (64-Bit) -->
<svg xmlns="http://www.w3.org/2000/svg" xml:space="preserve" width="210mm" height="297mm" version="1.1" style="shape-rendering:geometricPrecision; text-rendering:geometricPrecision; image-rendering:optimizeQuality; fill-rule:evenodd; clip-rule:evenodd"
viewBox="0 0 21000 29700"
 xmlns:xlink="http://www.w3.org/1999/xlink"
 xmlns:xodm="http://www.corel.com/coreldraw/odm/2003"
 enable-background="new 0 0 511.998 511.998">
 <defs>
  <style type="text/css">
   <![CDATA[
    .fil0 {fill:#FFED00;fill-rule:nonzero}
   ]]>
  </style>
 </defs>
 <g id="Слой_x0020_1">
  <metadata id="CorelCorpID_0Corel-Layer"/>
  <path class="fil0" d="M13646 13761c515,99 1025,-195 1198,-690l904 -2583c80,-229 -168,-434 -378,-313l-677 391 -1785 -3092c-220,-381 -627,-616 -1067,-616l-2747 0c-440,0 -847,235 -1067,616l-1916 3318c-169,292 -69,666 224,834l2071 1196c292,169 666,69 834,-224l1227 -2126 1097 1900 -679 392c-210,121 -156,438 82,483l2679 513z"/>
  <path class="fil0" d="M18777 18928c201,-355 198,-790 -9,-1142l-1798 -3060c-158,-270 -505,-360 -775,-201l-1911 1122c-270,158 -360,505 -201,775l1153 1961 -2033 15 -5 -727c-2,-225 -281,-326 -427,-155l-1639 1925c-315,370 -312,915 8,1281l1668 1910c148,169 427,64 425,-161l-5 -725 3308 -25c408,-3 783,-223 984,-578l1257 -2216z"/>
  <path class="fil0" d="M8336 18676l-2325 -9 1047 -1795 642 374c198,116 434,-77 359,-294l-837 -2444c-161,-470 -642,-751 -1130,-661l-2549 471c-226,42 -278,342 -80,458l640 373 -1704 2921c-210,360 -212,805 -5,1167l1293 2260c207,362 591,586 1008,588l3628 15c320,1 580,-256 581,-576l10 -2265c1,-320 -257,-580 -576,-581l0 0z"/>
 </g>
</svg>
