<?xml version="1.0" encoding="UTF-8"?>
<!DOCTYPE svg PUBLIC "-//W3C//DTD SVG 1.1//EN" "http://www.w3.org/Graphics/SVG/1.1/DTD/svg11.dtd">
<!-- Creator: CorelDRAW 2020 (64-Bit) -->
<svg xmlns="http://www.w3.org/2000/svg" xml:space="preserve" width="210mm" height="297mm" version="1.1" style="shape-rendering:geometricPrecision; text-rendering:geometricPrecision; image-rendering:optimizeQuality; fill-rule:evenodd; clip-rule:evenodd"
viewBox="0 0 21000 29700"
 xmlns:xlink="http://www.w3.org/1999/xlink"
 xmlns:xodm="http://www.corel.com/coreldraw/odm/2003">
 <defs>
  <style type="text/css">
   <![CDATA[
    .fil0 {fill:#FFED00;fill-rule:nonzero}
   ]]>
  </style>
 </defs>
 <g id="Слой_x0020_1">
  <metadata id="CorelCorpID_0Corel-Layer"/>
  <g id="_2095678742944">
   <path class="fil0" d="M2331 8682c247,41 502,-14 703,-153l626 -427 0 4182c0,337 295,611 659,611l5936 0c364,0 659,-273 659,-611l0 -4180 626 427c412,274 986,188 1282,-194 296,-381 203,-913 -209,-1187l-1699 -1113 0 -1691c0,-169 -148,-305 -330,-305l-1319 0c-182,0 -330,137 -330,305l0 397 -1458 -952c-114,-75 -266,-75 -380,0l-5137 3358c-303,198 -448,545 -367,880 81,335 371,592 737,652l0 0zm3309 3602l0 -1832 1319 0 0 1832 -1319 0zm4616 0l-2638 0 0 -2137c0,-169 -148,-305 -330,-305l-1978 0c-182,0 -330,137 -330,305l0 2137 -659 0 0 -4628 2968 -2015 2968 2015 0 4628zm-659 -7632l659 0 0 955 -659 -431 0 -524zm-7254 2996l4946 -3233 4946 3233c78,49 122,133 113,220 -9,87 -67,163 -154,198 -86,35 -187,24 -262,-29l-4449 -3022c-116,-79 -274,-79 -390,0l-4450 3022c-75,57 -178,71 -267,36 -89,-35 -150,-113 -157,-203 -7,-89 40,-175 123,-222zm0 0z"/>
   <path class="fil0" d="M7949 10147l0 1221c0,169 148,305 330,305l1319 0c182,0 330,-137 330,-305l0 -1221c0,-169 -148,-305 -330,-305l-1319 0c-182,0 -330,137 -330,305zm659 305l659 0 0 611 -659 0 0 -611zm0 0z"/>
   <path class="fil0" d="M5970 8010c0,674 591,1221 1319,1221 729,0 1319,-547 1319,-1221 0,-675 -590,-1221 -1319,-1221 -728,0 -1319,547 -1319,1221zm1978 0c0,337 -295,611 -659,611 -364,0 -659,-273 -659,-611 0,-337 295,-611 659,-611 364,0 659,273 659,611zm0 0z"/>
   <path class="fil0" d="M1024 18390l0 -9769c0,-169 148,-305 330,-305l0 -611c-546,0 -989,410 -989,916l0 9769c0,506 443,916 989,916l11211 0 0 -611 -11211 0c-182,0 -330,-137 -330,-305zm0 0z"/>
   <path class="fil0" d="M19160 7705l-5606 0 0 611 5606 0c182,0 330,137 330,305l0 9769c0,169 -148,305 -330,305l-659 0 0 611 659 0c546,0 989,-410 989,-916l0 -9769c0,-506 -443,-916 -989,-916zm0 0z"/>
   <path class="fil0" d="M15533 15337c-911,0 -1649,683 -1649,1526 0,843 738,1526 1649,1526 911,0 1649,-683 1649,-1526 -1,-843 -739,-1526 -1649,-1526zm0 2442c-546,0 -989,-410 -989,-916 0,-506 443,-916 989,-916 546,0 989,410 989,916 0,506 -443,916 -989,916zm0 0z"/>
   <path class="fil0" d="M18326 16246c-64,-51 -121,-109 -171,-172 -3,-83 7,-167 28,-247 80,-231 52,-483 -78,-694 -178,-181 -429,-284 -692,-285 -88,-6 -174,-23 -257,-50 -52,-64 -96,-134 -129,-209 -82,-234 -268,-425 -511,-526 -254,-48 -519,4 -730,145 -79,45 -164,79 -253,103 -89,-23 -174,-58 -253,-103 -210,-141 -475,-194 -730,-145 -243,101 -428,292 -510,526 -33,74 -76,144 -127,208 -83,27 -170,44 -258,50 -264,1 -515,104 -692,285 -130,211 -159,462 -78,694 21,81 30,164 28,247 -49,64 -107,122 -171,173 -217,146 -358,370 -386,617 28,247 168,471 385,617 64,51 121,109 171,172 3,83 -7,167 -28,247 -80,231 -52,483 79,694 177,181 429,284 692,285 78,8 155,21 231,40l0 2830c0,116 71,221 182,273 112,52 246,41 345,-29l1121 -778 1121 778c57,40 127,61 198,61 182,0 330,-137 330,-305l0 -2830c76,-19 153,-32 231,-40 264,-1 515,-104 692,-285 130,-211 158,-463 78,-694 -21,-81 -30,-164 -28,-247 49,-64 107,-122 171,-173 217,-146 357,-370 385,-617 -28,-247 -168,-471 -385,-617l0 0zm-2595 4341c-117,-81 -278,-81 -396,0l-791 550 0 -1478c3,0 4,3 7,3 255,49 519,-4 730,-145 79,-45 164,-79 253,-103 89,23 174,58 253,103 164,98 352,157 547,171 62,0 124,-9 183,-27 3,0 4,-3 7,-3l0 1478 -791 -550zm2141 -3550c-152,114 -270,261 -344,427 -47,179 -45,366 6,545 17,73 27,148 31,223 -79,21 -160,35 -241,42 -410,-10 -776,236 -893,600 -33,70 -73,137 -119,201 -74,-26 -145,-57 -214,-94 -169,-102 -363,-163 -565,-177 -201,14 -395,74 -564,175 -69,37 -140,68 -214,94 -46,-64 -85,-131 -119,-201 -71,-170 -185,-321 -335,-439 -169,-96 -362,-152 -561,-162 -81,-7 -162,-21 -241,-42 4,-75 14,-149 31,-223 51,-178 53,-365 6,-544 -74,-167 -192,-314 -344,-427 -63,-55 -168,-147 -182,-162 51,-70 112,-133 182,-187 151,-114 270,-261 344,-427 47,-179 45,-366 -6,-545 -17,-73 -27,-148 -31,-223 79,-21 160,-35 241,-42 198,-10 390,-65 558,-161 149,-118 264,-269 335,-439 33,-70 73,-138 119,-201 74,26 145,57 214,94 170,103 365,164 566,179 201,-14 395,-74 564,-175 69,-37 140,-68 214,-94 46,64 85,131 119,201 117,364 483,610 894,601 81,7 162,21 241,42 -4,75 -14,149 -31,223 -51,178 -53,365 -6,544 74,167 192,314 344,427 65,52 124,111 175,174 -52,63 -111,121 -175,173l0 0zm0 0z"/>
   <path class="fil0" d="M18830 11673l0 -1832c0,-506 -443,-916 -989,-916l-1978 0 0 611 1978 0c182,0 330,137 330,305l0 1832 659 0zm0 0z"/>
   <path class="fil0" d="M1683 15337l0 1832c0,506 443,916 989,916l1978 0 0 -611 -1978 0c-182,0 -330,-137 -330,-305l0 -1832 -659 0zm0 0z"/>
   <path class="fil0" d="M4651 14116l5276 0 0 611 -5276 0 0 -611zm0 0z"/>
   <path class="fil0" d="M3992 15337l6595 0 0 611 -6595 0 0 -611zm0 0z"/>
   <path class="fil0" d="M13554 11063l3297 0 0 611 -3297 0 0 -611zm0 0z"/>
   <path class="fil0" d="M12235 11063l659 0 0 611 -659 0 0 -611zm0 0z"/>
   <path class="fil0" d="M12235 12284l4616 0 0 611 -4616 0 0 -611zm0 0z"/>
  </g>
 </g>
</svg>
